<svg id="Capa_1" enable-background="new 0 0 512 512" height="512" viewBox="0 0 512 512" width="512" xmlns="http://www.w3.org/2000/svg" xmlns:xlink="http://www.w3.org/1999/xlink"><linearGradient id="SVGID_1_" gradientUnits="userSpaceOnUse" x1="256" x2="256" y1="512" y2="0"><stop offset="0" stop-color="#addcff"/><stop offset=".5028" stop-color="#eaf6ff"/><stop offset="1" stop-color="#eaf6ff"/></linearGradient><linearGradient id="SVGID_2_" gradientUnits="userSpaceOnUse" x1="256" x2="256" y1="105" y2="407"><stop offset="0" stop-color="#5558ff"/><stop offset="1" stop-color="#00c0ff"/></linearGradient><g><circle cx="256" cy="256" fill="url(#SVGID_1_)" r="256"/><g><g><path d="m318.177 256c0-22.286-2.727-43.488-7.468-62.177h-109.418c-4.74 18.689-7.468 39.891-7.468 62.177s2.727 43.488 7.468 62.176h109.418c4.74-18.688 7.468-39.89 7.468-62.176zm-17.765 35.529c0 4.91-3.973 8.882-8.882 8.882h-71.059c-4.91 0-8.882-3.973-8.882-8.882v-35.529c0-4.91 3.973-8.882 8.882-8.882h8.882v-8.882c0-14.694 11.953-26.647 26.647-26.647s26.647 11.953 26.647 26.647v8.882h8.882c4.91 0 8.882 3.973 8.882 8.882v35.529zm-44.412 97.706c19.824 0 37.788-21.205 49.264-53.294h-98.528c11.476 32.089 29.44 53.294 49.264 53.294zm-79.941-133.235c0-22.313 2.494-43.29 6.906-62.177h-64.412c-8.626 18.989-13.553 39.998-13.553 62.177s4.927 43.188 13.552 62.176h64.412c-4.411-18.886-6.905-39.863-6.905-62.176zm53.294 26.647h53.294v-17.765h-53.294zm35.529-44.412c0-4.901-3.981-8.882-8.882-8.882s-8.882 3.981-8.882 8.882v8.882h17.765v-8.882zm-8.882-133.235c-53.889 0-101.143 28.464-127.869 71.059h59.795c13.949-42.909 38.92-71.059 68.074-71.059zm0 302c53.889 0 101.143-28.464 127.869-71.059h-59.795c-13.949 42.909-38.92 71.059-68.074 71.059zm-68.074-71.059h-59.795c26.726 42.595 73.98 71.059 127.869 71.059-29.154 0-54.125-28.15-68.074-71.059zm68.074-213.176c-19.824 0-37.788 21.205-49.264 53.294h98.528c-11.476-32.089-29.44-53.294-49.264-53.294zm68.074 53.294h59.795c-26.726-42.595-73.98-71.059-127.869-71.059 29.154 0 54.125 28.15 68.074 71.059zm69.374 17.764h-64.412c4.412 18.887 6.906 39.863 6.906 62.177s-2.494 43.29-6.906 62.176h64.412c8.625-18.988 13.552-39.997 13.552-62.176s-4.927-43.188-13.552-62.177z" fill="url(#SVGID_2_)"/></g></g></g></svg>