<svg height="512" viewBox="0 0 128 128" width="512" xmlns="http://www.w3.org/2000/svg"><path d="m119.933 112.593-13.612-11.837v-83.135a11.1 11.1 0 0 0 -11.086-11.086h-74.6a11.1 11.1 0 0 0 -11.087 11.091v25.96.014 40.37a1.034 1.034 0 0 0 .006.108 6.057 6.057 0 0 0 6.038 5.933h14.138v15.029a3 3 0 0 0 3 3h63.894l12.959 14.9a7.365 7.365 0 0 0 5.281 2.518h.253a7.336 7.336 0 0 0 4.816-12.872z" fill="#e6e7e8"/><path d="m101.321 13.621a10.086 10.086 0 0 0 -10.086-10.086h-74.6a10.091 10.091 0 0 1 10.095 10.091v87.413a2 2 0 0 0 2 2h70.591a2 2 0 0 0 2-2z" fill="#d4fbff"/><path d="m29.73 101.039v-87.413a10.091 10.091 0 0 0 -10.091-10.091h-3a10.091 10.091 0 0 1 10.091 10.091v87.413a2 2 0 0 0 2 2h3a2 2 0 0 1 -2-2z" fill="#fff"/><path d="m6.545 39.6v40.37.033z" fill="#fa759e"/><path d="m16.639 3.535a10.091 10.091 0 0 0 -10.091 10.091v66.374a5.044 5.044 0 0 0 5.042 5.013h15.14v-71.387a10.091 10.091 0 0 0 -10.091-10.091z" fill="#0089ef"/><path d="m11.59 85.016a5.046 5.046 0 0 0 5.046-5.046v-57.023a2 2 0 0 1 2-2h8.094v64.069z" fill="#d4fbff"/><path d="m115.277 109.347-21.932-19.071-6.079 6.078 19.072 21.933a6.337 6.337 0 1 0 8.939-8.94z" fill="#fa759e"/><path d="m93.744 84.262-.315-.315a3.937 3.937 0 0 0 -2.2-1.1 28.889 28.889 0 0 1 -11.4 11.4 3.938 3.938 0 0 0 1.1 2.194l.315.315a3.97 3.97 0 0 0 5.615 0l6.877-6.876a3.971 3.971 0 0 0 .008-5.618z" fill="#ffd7e5"/><circle cx="65.9" cy="68.91" fill="#0089ef" r="28.914"/><circle cx="65.9" cy="68.91" fill="#d4fbff" r="23.262"/><path d="m68.665 52.91v13.235h13.235a13.235 13.235 0 0 0 -13.235-13.235z" fill="#ffd7e5"/><path d="m65.135 56.439a13.236 13.236 0 1 0 13.235 13.235h-13.235z" fill="#fa759e"/><rect fill="#fa759e" height="8.078" rx="2" width="8.078" x="37.344" y="12.869"/><rect fill="#fa759e" height="8.078" rx="2" width="8.078" x="37.344" y="27.869"/><g fill="#3a2c60"><path d="m101.321 39a1 1 0 0 0 -1 1v7.559a1 1 0 1 0 2 0v-7.559a1 1 0 0 0 -1-1z"/><path d="m115.933 108.593-13.612-11.837v-45.034a1 1 0 0 0 -2 0v43.295l-5.548-4.825a4.921 4.921 0 0 0 -.322-6.637l-.315-.315a4.829 4.829 0 0 0 -1.468-.993 29.88 29.88 0 1 0 -13.43 13.43 4.8 4.8 0 0 0 .993 1.468l.314.315a4.923 4.923 0 0 0 6.638.322l3.7 4.257h-62.153a1 1 0 0 1 -1-1v-87.413a11.082 11.082 0 0 0 -4.756-9.091h68.261a9.1 9.1 0 0 1 9.086 9.086v22.327a1 1 0 1 0 2 0v-22.327a11.1 11.1 0 0 0 -11.086-11.086h-74.6a11.1 11.1 0 0 0 -11.087 11.091v25.958.017 40.369a1.068 1.068 0 0 0 .008.122 6.056 6.056 0 0 0 6.037 5.92h14.137v15.023a3 3 0 0 0 3 3h63.894l12.959 14.9a7.358 7.358 0 0 0 5.281 2.517c.085 0 .169.005.253.005a7.336 7.336 0 0 0 4.816-12.872zm-108.385-28.593v-66.374a9.091 9.091 0 0 1 18.182 0v6.322h-7.095a3 3 0 0 0 -3 3v57.022a4.044 4.044 0 0 1 -8.087.03zm10.087-.033v-57.019a1 1 0 0 1 1-1h7.095v62.068h-9.651a6.028 6.028 0 0 0 1.556-4.046zm28.527 8.677a27.913 27.913 0 1 1 19.738 8.179 27.731 27.731 0 0 1 -19.738-8.176zm35.8 7.4-.315-.315a2.907 2.907 0 0 1 -.65-1 29.935 29.935 0 0 0 10.731-10.73 2.914 2.914 0 0 1 1 .649l.315.315a2.971 2.971 0 0 1 0 4.2l-6.883 6.883a3.04 3.04 0 0 1 -4.2 0zm32.931 21.856a5.337 5.337 0 0 1 -7.8-.272l-18.46-21.228 4.759-4.759 21.229 18.459a5.337 5.337 0 0 1 .272 7.8z"/><path d="m83.056 51.753a24.263 24.263 0 1 0 0 34.312 24.108 24.108 0 0 0 0-34.312zm-1.414 32.9a22.262 22.262 0 1 1 0-31.484 22.118 22.118 0 0 1 0 31.482z"/><path d="m68.665 51.91a1 1 0 0 0 -1 1v13.235a1 1 0 0 0 1 1h13.235a1 1 0 0 0 1-1 14.251 14.251 0 0 0 -14.235-14.235zm1 13.235v-11.195a12.256 12.256 0 0 1 11.194 11.195z"/><path d="m78.371 68.674h-12.236v-12.235a1 1 0 0 0 -1-1 14.236 14.236 0 1 0 14.236 14.235 1 1 0 0 0 -1-1zm-13.236 13.236a12.236 12.236 0 0 1 -1-24.431v12.2a1 1 0 0 0 1 1h12.195a12.253 12.253 0 0 1 -12.195 11.231z"/><path d="m46.422 14.869a3 3 0 0 0 -3-3h-4.079a3 3 0 0 0 -3 3v4.079a3 3 0 0 0 3 3h4.079a3 3 0 0 0 3-3zm-2 4.079a1 1 0 0 1 -1 1h-4.079a1 1 0 0 1 -1-1v-4.079a1 1 0 0 1 1-1h4.079a1 1 0 0 1 1 1z"/><path d="m90.927 15.908h-38.25a1 1 0 1 0 0 2h38.25a1 1 0 0 0 0-2z"/><path d="m43.422 26.87h-4.079a3 3 0 0 0 -3 3v4.078a3 3 0 0 0 3 3h4.079a3 3 0 0 0 3-3v-4.078a3 3 0 0 0 -3-3zm1 7.078a1 1 0 0 1 -1 1h-4.079a1 1 0 0 1 -1-1v-4.078a1 1 0 0 1 1-1h4.079a1 1 0 0 1 1 1z"/><path d="m90.927 30.909h-38.25a1 1 0 0 0 0 2h38.25a1 1 0 0 0 0-2z"/></g></svg>