<svg id="Capa_1" enable-background="new 0 0 512 512" height="512" viewBox="0 0 512 512" width="512" xmlns="http://www.w3.org/2000/svg" xmlns:xlink="http://www.w3.org/1999/xlink"><linearGradient id="SVGID_1_" gradientUnits="userSpaceOnUse" x1="256" x2="256" y1="512" y2="0"><stop offset="0" stop-color="#addcff"/><stop offset=".5028" stop-color="#eaf6ff"/><stop offset="1" stop-color="#eaf6ff"/></linearGradient><linearGradient id="SVGID_2_" gradientUnits="userSpaceOnUse" x1="256" x2="256" y1="407" y2="105"><stop offset="0" stop-color="#00c0ff"/><stop offset="1" stop-color="#5558ff"/></linearGradient><g><g><circle cx="256" cy="256" fill="url(#SVGID_1_)" r="256"/></g><g><g><path d="m273.765 247.118c-4.975 0-8.882 3.908-8.882 8.882v115.471h53.294v-115.471c0-4.975-3.908-8.882-8.882-8.882zm-59.575 15.162c1.735 1.735 4.008 2.602 6.28 2.602s4.545-.867 6.28-2.602l126.955-126.955v14.087c0 4.91 3.973 8.882 8.882 8.882s8.882-3.973 8.882-8.882v-35.529c0-4.859-3.984-8.882-8.882-8.882h-35.529c-4.91 0-8.882 3.973-8.882 8.882 0 4.91 3.973 8.882 8.882 8.882h14.087l-120.674 120.675-64.779-64.779c-3.47-3.47-9.091-3.47-12.56 0-3.47 3.47-3.47 9.09 0 12.56zm121.751-59.574v168.765h53.294v-168.765c0-4.975-3.908-8.882-8.882-8.882h-35.53c-4.974-.001-8.882 3.907-8.882 8.882zm-133.235 97.706c-4.975 0-8.882 3.908-8.882 8.882v62.176h53.294v-62.176c0-4.975-3.908-8.882-8.882-8.882zm-26.647-44.412c0-4.975-3.908-8.882-8.882-8.882h-35.53c-4.975 0-8.882 3.908-8.882 8.882v115.471h53.294zm222.059 133.235h-284.236c-4.975 0-8.882 3.908-8.882 8.882s3.908 8.882 8.882 8.882h284.235c4.975 0 8.882-3.909 8.882-8.882.001-4.974-3.907-8.882-8.881-8.882z" fill="url(#SVGID_2_)"/></g></g></g></svg>