<svg height="512" viewBox="0 0 128 128" width="512" xmlns="http://www.w3.org/2000/svg"><path d="m123.172 69.675v-9.655a5.108 5.108 0 0 0 -5.1-5.1h-17.244v-28.42a5.006 5.006 0 0 0 -5-5h-82a5.006 5.006 0 0 0 -5 5v66a5.006 5.006 0 0 0 5 5h53.23v7.9a5.108 5.108 0 0 0 5.1 5.1h45.912a5.108 5.108 0 0 0 5.1-5.1v-9.658a5.085 5.085 0 0 0 -2.1-4.1 5.086 5.086 0 0 0 2.1-4.1v-9.662a5.084 5.084 0 0 0 -2.1-4.1 5.086 5.086 0 0 0 2.102-4.105z" fill="#e6e7e8"/><path d="m64.058 91.742a4.1 4.1 0 0 1 4.1-4.1 4.1 4.1 0 0 1 -4.1-4.1v-9.661a4.1 4.1 0 0 1 4.1-4.1 4.1 4.1 0 0 1 -4.1-4.1v-9.662a4.1 4.1 0 0 1 4.1-4.1h27.67v-29.419a4 4 0 0 0 -4-4h-82a4 4 0 0 0 -4 4v66a4 4 0 0 0 4 4h54.23z" fill="#d4fbff"/><path d="m83.328 43h-65a2.834 2.834 0 0 0 0 5.667h65a2.834 2.834 0 0 0 0-5.667z" fill="#6dc9f7"/><path d="m91.828 18.5h-82a4 4 0 0 0 -4 4v10.5h90v-10.5a4 4 0 0 0 -4-4z" fill="#0089ef"/><path d="m8.827 88.5v-66a4 4 0 0 1 4-4h-3a4 4 0 0 0 -4 4v66a4 4 0 0 0 4 4h3a4 4 0 0 1 -4-4z" fill="#fff"/><path d="m74.494 23.583a2.334 2.334 0 1 0 2.334 2.334 2.334 2.334 0 0 0 -2.334-2.334z" fill="#fff"/><circle cx="81.494" cy="25.917" fill="#d4fbff" r="2.333"/><path d="m88.494 23.583a2.334 2.334 0 1 0 2.334 2.334 2.334 2.334 0 0 0 -2.334-2.334z" fill="#fa759e"/><rect fill="#fa759e" height="17.861" rx="4.103" width="54.114" x="64.058" y="87.639"/><path d="m100.787 94.2a2.369 2.369 0 1 0 2.368 2.369 2.369 2.369 0 0 0 -2.368-2.369z" fill="#ffd7e5"/><path d="m109.253 94.2a2.369 2.369 0 1 0 2.368 2.369 2.369 2.369 0 0 0 -2.368-2.369z" fill="#ffd7e5"/><rect fill="#fa759e" height="17.861" rx="4.103" width="54.114" x="64.058" y="69.778"/><path d="m100.787 76.34a2.369 2.369 0 1 0 2.368 2.368 2.369 2.369 0 0 0 -2.368-2.368z" fill="#ffd7e5"/><path d="m109.253 76.34a2.369 2.369 0 1 0 2.368 2.368 2.369 2.369 0 0 0 -2.368-2.368z" fill="#ffd7e5"/><rect fill="#fa759e" height="17.861" rx="4.103" width="54.114" x="64.058" y="51.917"/><path d="m24.328 34h8.75a1 1 0 0 0 0-2h-8.75a1 1 0 0 0 0 2z" fill="#3a2c60"/><path d="m119.172 65.675v-9.656a5.108 5.108 0 0 0 -5.1-5.1h-17.244v-28.419a5.006 5.006 0 0 0 -5-5h-82a5.006 5.006 0 0 0 -5 5v66a5.006 5.006 0 0 0 5 5h53.231v7.9a5.108 5.108 0 0 0 5.1 5.1h45.911a5.108 5.108 0 0 0 5.1-5.1v-9.658a5.086 5.086 0 0 0 -2.1-4.1 5.086 5.086 0 0 0 2.1-4.1v-9.661a5.085 5.085 0 0 0 -2.1-4.1 5.086 5.086 0 0 0 2.102-4.106zm-56.089 25.825h-53.255a3 3 0 0 1 -3-3v-54.5h12.666a1 1 0 0 0 0-2h-12.666v-9.5a3 3 0 0 1 3-3h82a3 3 0 0 1 3 3v9.5h-56.728a1 1 0 0 0 0 2h56.728v16.917h-26.667a5.108 5.108 0 0 0 -4.682 3.083h-47.485a1 1 0 0 0 0 2h47.066v7h-47.066a1 1 0 0 0 0 2h47.065v.675a5.086 5.086 0 0 0 2.1 4.1 5.108 5.108 0 0 0 -1.731 2.225h-47.434a1 1 0 0 0 0 2h47.065v7h-47.065a1 1 0 0 0 0 2h47.065v.536a5.086 5.086 0 0 0 2.1 4.1 5.079 5.079 0 0 0 -2.076 3.864zm54.089.242v9.658a3.106 3.106 0 0 1 -3.1 3.1h-45.911a3.106 3.106 0 0 1 -3.1-3.1v-9.658a3.106 3.106 0 0 1 3.1-3.1h45.909a3.106 3.106 0 0 1 3.102 3.1zm0-17.861v9.655a3.106 3.106 0 0 1 -3.1 3.1h-45.911a3.106 3.106 0 0 1 -3.1-3.1v-9.655a3.106 3.106 0 0 1 3.1-3.1h45.909a3.106 3.106 0 0 1 3.102 3.1zm0-8.206a3.106 3.106 0 0 1 -3.1 3.1h-45.911a3.106 3.106 0 0 1 -3.1-3.1v-9.656a3.105 3.105 0 0 1 3.1-3.1h45.909a3.105 3.105 0 0 1 3.1 3.1z" fill="#3a2c60"/><g fill="#ffd7e5"><path d="m100.787 58.479a2.369 2.369 0 1 0 2.368 2.368 2.369 2.369 0 0 0 -2.368-2.368z"/><path d="m109.253 58.479a2.369 2.369 0 1 0 2.368 2.368 2.369 2.369 0 0 0 -2.368-2.368z"/></g></svg>