<svg id="Capa_1" enable-background="new 0 0 512 512" height="512" viewBox="0 0 512 512" width="512" xmlns="http://www.w3.org/2000/svg" xmlns:xlink="http://www.w3.org/1999/xlink"><linearGradient id="SVGID_1_" gradientUnits="userSpaceOnUse" x1="256" x2="256" y1="512" y2="0"><stop offset="0" stop-color="#5558ff"/><stop offset="1" stop-color="#00c0ff"/></linearGradient><g><g><path d="m75 452c8.284 0 15-6.716 15-15 0-8.286-6.716-15-15-15s-15 6.714-15 15c0 8.284 6.716 15 15 15zm60 0c8.284 0 15-6.716 15-15 0-8.286-6.716-15-15-15s-15 6.714-15 15c0 8.284 6.716 15 15 15zm182 0h120c8.291 0 15-6.709 15-15s-6.709-15-15-15h-120c-8.291 0-15 6.709-15 15s6.709 15 15 15zm-242-181c8.284 0 15-6.716 15-15 0-8.286-6.716-15-15-15s-15 6.714-15 15c0 8.284 6.716 15 15 15zm60 0c8.284 0 15-6.716 15-15 0-8.286-6.716-15-15-15s-15 6.714-15 15c0 8.284 6.716 15 15 15zm362-121c8.291 0 15-6.709 15-15v-120c0-8.291-6.709-15-15-15h-482c-8.291 0-15 6.709-15 15v120c0 8.291 6.709 15 15 15h45v31h-45c-8.291 0-15 6.709-15 15v120c0 8.291 6.709 15 15 15h45v31h-45c-8.291 0-15 6.709-15 15v120c0 8.291 6.709 15 15 15h482c8.291 0 15-6.709 15-15v-120c0-8.291-6.709-15-15-15h-45v-31h45c8.291 0 15-6.709 15-15v-120c0-8.291-6.709-15-15-15h-45v-31zm-15 242v90h-452v-90zm-392-30v-31h332v31zm392-151v90h-452v-90zm-392-30v-31h332v31zm-60-61v-90h452v90zm45-60c-8.284 0-15 6.716-15 15s6.716 15 15 15 15-6.716 15-15-6.716-15-15-15zm60 0c-8.284 0-15 6.716-15 15s6.716 15 15 15 15-6.716 15-15-6.716-15-15-15zm302 0h-120c-8.291 0-15 6.709-15 15s6.709 15 15 15h120c8.291 0 15-6.709 15-15s-6.709-15-15-15zm-120 211h120c8.291 0 15-6.709 15-15s-6.709-15-15-15h-120c-8.291 0-15 6.709-15 15s6.709 15 15 15z" fill="url(#SVGID_1_)"/></g></g></svg>