<svg height="512" viewBox="0 0 128 128" width="512" xmlns="http://www.w3.org/2000/svg"><path d="m124.885 36.549v-12.549a6.34 6.34 0 0 0 -6.334-6.333h-59.678a6.34 6.34 0 0 0 -6.333 6.333v12.549a6.327 6.327 0 0 0 2.932 5.333 6.333 6.333 0 0 0 -2.9 4.741l-9.026-4.223a6.9 6.9 0 0 0 -5.862 0l-26.506 12.394a7.224 7.224 0 0 0 -4.048 6.992c.5 7.746 2.318 22.395 8.964 33.475 8.44 14.066 18.866 17.9 22.958 18.89a6.682 6.682 0 0 0 3.127 0c4.091-.993 14.517-4.823 22.956-18.889a48.15 48.15 0 0 0 2.992-5.943h50.424a6.34 6.34 0 0 0 6.334-6.333v-12.552a6.327 6.327 0 0 0 -2.932-5.333 6.331 6.331 0 0 0 2.932-5.334v-12.551a6.33 6.33 0 0 0 -2.932-5.334 6.327 6.327 0 0 0 2.932-5.333z" fill="#e6e7e8"/><path d="m119.885 32.549v-12.549a5.333 5.333 0 0 0 -5.333-5.333h-59.679a5.333 5.333 0 0 0 -5.333 5.333v12.549a5.333 5.333 0 0 0 5.333 5.333 5.334 5.334 0 0 0 -5.333 5.334v.964l16.088 7.52a6.188 6.188 0 0 1 3.472 6.022c-.376 5.879-1.608 16.79-5.635 26.6h51.085a5.334 5.334 0 0 0 5.333-5.334v-12.554a5.334 5.334 0 0 0 -5.333-5.334 5.333 5.333 0 0 0 5.333-5.333v-12.551a5.334 5.334 0 0 0 -5.333-5.334 5.333 5.333 0 0 0 5.335-5.333z" fill="#fa759e"/><g fill="#ffd7e5"><circle cx="97.285" cy="72.709" r="3.079"/><circle cx="108.29" cy="72.709" r="3.079"/><circle cx="97.285" cy="49.491" r="3.079"/><circle cx="108.29" cy="49.491" r="3.079"/><circle cx="97.285" cy="26.273" r="3.079"/><circle cx="108.29" cy="26.273" r="3.079"/></g><path d="m34.107 39.31-26.507 12.39a6.185 6.185 0 0 0 -3.474 6.021c.461 7.212 2.208 22 8.824 33.024 8.35 13.912 18.71 17.555 22.337 18.434a5.651 5.651 0 0 0 2.656 0c3.627-.882 13.99-4.522 22.335-18.433 6.616-11.028 8.363-25.813 8.824-33.024a6.188 6.188 0 0 0 -3.474-6.022l-26.506-12.39a5.9 5.9 0 0 0 -5.015 0z" fill="#0089ef"/><path d="m7.6 54.7 26.507-12.39a5.9 5.9 0 0 1 5.015 0l26.506 12.39a6.1 6.1 0 0 1 3.372 4.48c.04-.514.075-1 .1-1.458a6.188 6.188 0 0 0 -3.472-6.022l-26.506-12.39a5.9 5.9 0 0 0 -5.015 0l-26.507 12.39a6.185 6.185 0 0 0 -3.474 6.021c.029.456.063.944.1 1.457a6.1 6.1 0 0 1 3.374-4.478z" fill="#fff"/><path d="m29.248 67.862v-4.751a7.539 7.539 0 0 1 6.4-7.561 7.375 7.375 0 0 1 8.336 7.305v5.007h4.147v-5.007a11.527 11.527 0 0 0 -12.626-11.463 11.738 11.738 0 0 0 -10.4 11.8v4.671z" fill="#d4fbff"/><rect fill="#6dc9f7" height="23.13" rx="2.342" width="34.144" x="19.543" y="67.862"/><path d="m120.885 32.549v-12.549a6.34 6.34 0 0 0 -6.333-6.333h-32.168a1 1 0 0 0 0 2h32.168a4.338 4.338 0 0 1 4.333 4.333v12.549a4.338 4.338 0 0 1 -4.333 4.333h-59.679a4.338 4.338 0 0 1 -4.333-4.333v-12.549a4.338 4.338 0 0 1 4.333-4.333h9.761a1 1 0 0 0 0-2h-9.761a6.34 6.34 0 0 0 -6.333 6.333v12.549a6.33 6.33 0 0 0 2.931 5.333 6.335 6.335 0 0 0 -2.9 4.741l-9.025-4.223a6.9 6.9 0 0 0 -5.862 0l-26.505 12.4a7.22 7.22 0 0 0 -4.049 6.986c.5 7.746 2.318 22.4 8.965 33.475 8.439 14.066 18.865 17.9 22.958 18.89a6.678 6.678 0 0 0 3.126 0c4.09-.993 14.517-4.822 22.956-18.889a48.15 48.15 0 0 0 2.992-5.943h50.425a6.34 6.34 0 0 0 6.333-6.333v-12.552a6.328 6.328 0 0 0 -2.931-5.333 6.331 6.331 0 0 0 2.931-5.333v-12.552a6.33 6.33 0 0 0 -2.931-5.334 6.33 6.33 0 0 0 2.931-5.333zm-61.465 57.682c-8.051 13.42-17.867 17.041-21.712 17.976a4.651 4.651 0 0 1 -2.185 0c-3.847-.935-13.663-4.556-21.714-17.976-6.428-10.715-8.2-25.007-8.683-32.572a5.206 5.206 0 0 1 2.9-5.052l26.506-12.39a4.907 4.907 0 0 1 4.168 0l26.5 12.39a5.207 5.207 0 0 1 2.9 5.052c-.48 7.566-2.251 21.858-8.68 32.572zm59.465-23.8v12.554a4.338 4.338 0 0 1 -4.333 4.333h-49.62a86.143 86.143 0 0 0 4.8-21.217h44.821a4.338 4.338 0 0 1 4.332 4.333zm0-23.218v12.555a4.338 4.338 0 0 1 -4.333 4.333h-44.629c.07-.819.132-1.6.177-2.315a7.221 7.221 0 0 0 -4.049-6.986l-15.511-7.256v-.328a4.338 4.338 0 0 1 4.333-4.334h59.679a4.338 4.338 0 0 1 4.333 4.334z" fill="#3a2c60"/><path d="m69.115 15.664h8.394a1 1 0 0 0 0-2h-8.394a1 1 0 0 0 0 2z" fill="#3a2c60"/><path d="m51.345 66.862h-2.216v-4.008a12.541 12.541 0 0 0 -4.1-9.253 12.387 12.387 0 0 0 -9.621-3.2 12.789 12.789 0 0 0 -11.308 12.79v3.671h-2.215a3.346 3.346 0 0 0 -3.342 3.338v18.449a3.346 3.346 0 0 0 3.342 3.343h29.46a3.347 3.347 0 0 0 3.342-3.343v-18.449a3.346 3.346 0 0 0 -3.342-3.338zm-25.245-3.671a10.775 10.775 0 0 1 9.5-10.8 10.415 10.415 0 0 1 8.086 2.691 10.537 10.537 0 0 1 3.444 7.775v4.008h-2.148v-4.011a8.376 8.376 0 0 0 -9.464-8.3 8.518 8.518 0 0 0 -7.27 8.553v3.751h-2.148zm4.147 3.671v-3.751a6.515 6.515 0 0 1 5.524-6.569 6.307 6.307 0 0 1 5.044 1.532 6.372 6.372 0 0 1 2.166 4.78v4.008zm22.44 21.787a1.344 1.344 0 0 1 -1.342 1.343h-29.46a1.344 1.344 0 0 1 -1.342-1.343v-18.449a1.343 1.343 0 0 1 1.342-1.342h29.46a1.343 1.343 0 0 1 1.342 1.342z" fill="#3a2c60"/><path d="m36.615 74.261a3.512 3.512 0 0 0 -1.521 6.678v4.179a1.521 1.521 0 0 0 3.042 0v-4.179a3.512 3.512 0 0 0 -1.521-6.678z" fill="#3a2c60"/></svg>