<?xml version="1.0" encoding="utf-8"?>
<!-- Generator: Adobe Illustrator 22.1.0, SVG Export Plug-In . SVG Version: 6.00 Build 0)  -->
<svg version="1.1" id="Capa_1" xmlns="http://www.w3.org/2000/svg" xmlns:xlink="http://www.w3.org/1999/xlink" x="0px" y="0px"
	 viewBox="0 0 512 512" style="enable-background:new 0 0 512 512;" xml:space="preserve">
<style type="text/css">
	.st0{fill:url(#SVGID_1_);}
	.st1{opacity:0.74;fill:url(#SVGID_2_);}
	.st2{fill:#FFFFFF;}
</style>
<g>
	<g>
		
			<linearGradient id="SVGID_1_" gradientUnits="userSpaceOnUse" x1="256" y1="-0.1102" x2="256" y2="511.8898" gradientTransform="matrix(1 0 0 -1 0 511.8898)">
			<stop  offset="0" style="stop-color:#5558FF"/>
			<stop  offset="1" style="stop-color:#00C0FF"/>
		</linearGradient>
		<path class="st0" d="M75,452c8.3,0,15-6.7,15-15c0-8.3-6.7-15-15-15s-15,6.7-15,15C60,445.3,66.7,452,75,452z M135,452
			c8.3,0,15-6.7,15-15c0-8.3-6.7-15-15-15s-15,6.7-15,15C120,445.3,126.7,452,135,452z M317,452h120c8.3,0,15-6.7,15-15
			s-6.7-15-15-15H317c-8.3,0-15,6.7-15,15S308.7,452,317,452z M75,271c8.3,0,15-6.7,15-15c0-8.3-6.7-15-15-15s-15,6.7-15,15
			C60,264.3,66.7,271,75,271z M135,271c8.3,0,15-6.7,15-15c0-8.3-6.7-15-15-15s-15,6.7-15,15C120,264.3,126.7,271,135,271z M497,150
			c8.3,0,15-6.7,15-15V15c0-8.3-6.7-15-15-15H15C6.7,0,0,6.7,0,15v120c0,8.3,6.7,15,15,15h45v31H15c-8.3,0-15,6.7-15,15v120
			c0,8.3,6.7,15,15,15h45v31H15c-8.3,0-15,6.7-15,15v120c0,8.3,6.7,15,15,15h482c8.3,0,15-6.7,15-15V377c0-8.3-6.7-15-15-15h-45v-31
			h45c8.3,0,15-6.7,15-15V196c0-8.3-6.7-15-15-15h-45v-31H497z M482,392v90H30v-90H482z M90,362v-31h332v31H90z M482,211v90H30v-90
			H482z M90,181v-31h332v31H90z M30,120V30h452v90H30z M75,60c-8.3,0-15,6.7-15,15s6.7,15,15,15s15-6.7,15-15S83.3,60,75,60z
			 M135,60c-8.3,0-15,6.7-15,15s6.7,15,15,15s15-6.7,15-15S143.3,60,135,60z M437,60H317c-8.3,0-15,6.7-15,15s6.7,15,15,15h120
			c8.3,0,15-6.7,15-15S445.3,60,437,60z M317,271h120c8.3,0,15-6.7,15-15s-6.7-15-15-15H317c-8.3,0-15,6.7-15,15
			C302,264.3,308.7,271,317,271z"/>
	</g>
</g>
<linearGradient id="SVGID_2_" gradientUnits="userSpaceOnUse" x1="256" y1="394.5" x2="256" y2="117.5">
	<stop  offset="0" style="stop-color:#5558FF"/>
	<stop  offset="1" style="stop-color:#00C0FF"/>
</linearGradient>
<circle class="st1" cx="256" cy="256" r="138.5"/>
<path class="st2" d="M328.3,313.8V256c0-8-6.5-14.5-14.5-14.5h-14.5v-14.5c0-23.9-19.5-43.4-43.4-43.4c-23.9,0-43.4,19.5-43.4,43.4
	v14.5h-14.5c-8,0-14.5,6.5-14.5,14.5v57.8c0,8,6.5,14.5,14.5,14.5h115.7C321.8,328.3,328.3,321.8,328.3,313.8L328.3,313.8z
	 M241.5,227.1c0-8,6.5-14.5,14.5-14.5c8,0,14.5,6.5,14.5,14.5h0v14.5h-28.9V227.1z M299.4,299.4h-86.7v-28.9h86.7V299.4z"/>
</svg>
