<svg height="496pt" viewBox="0 0 496 496" width="496pt" xmlns="http://www.w3.org/2000/svg" xmlns:xlink="http://www.w3.org/1999/xlink"><linearGradient id="linear0" gradientUnits="userSpaceOnUse" x1="248" x2="248" y1="496" y2="0"><stop offset="0" stop-color="#9f2fff"/><stop offset="1" stop-color="#0bb1d3"/></linearGradient><path d="m416 32h-96v-8c0-13.230469-10.769531-24-24-24s-24 10.769531-24 24v8h-203.3125l-68.6875 68.6875v395.3125h416v-32h48c17.648438 0 32-14.351562 32-32v-16c0-17.648438-14.351562-32-32-32h-48v-96h80v-224h-80zm-16 16v16h-80v-16zm-112-24c0-4.40625 3.585938-8 8-8s8 3.59375 8 8v64c0 4.40625-3.585938 8-8 8s-8-3.59375-8-8zm-224 35.3125v36.6875h-36.6875zm368 356.6875h-176v-16h176zm-192 25.046875-25.574219-17.046875 25.574219-17.046875zm16-9.046875h176v16h-176zm224-16v16c0 8.824219-7.183594 16-16 16h-16v-48h16c8.816406 0 16 7.175781 16 16zm-80-32h-154.425781l-60 40 60 40h154.425781v16h-384v-368h64v-64h192v16h-32v224h160zm80-112h-224v-192h16v8c0 13.230469 10.769531 24 24 24s24-10.769531 24-24v-8h160zm-136-88.167969v2.128907l-27.121094 7.75c-17.007812 4.855468-28.878906 20.601562-28.878906 38.289062v24h160v-24c0-17.6875-11.871094-33.433594-28.878906-38.289062l-27.121094-7.742188v-2.128906c9.96875-7.511719 16-19.328125 16-31.832032v-14.335937c0-21.503906-16.007812-39.726563-36.441406-41.503906-23.550782-2.113281-43.558594 16.601562-43.558594 39.832031v16c0 12.503906 6.03125 24.328125 16 31.832031zm0-47.832031c0-13.953125 12.046875-25.113281 26.167969-23.902344 12.246093 1.0625 21.832031 12.285156 21.832031 25.566406v14.335938c0 8.542969-4.496094 16.265625-12.023438 20.648438l-3.976562 2.3125v23.070312l38.726562 11.066406c10.167969 2.902344 17.273438 12.328125 17.273438 22.902344v8h-128v-8c0-10.574219 7.105469-20 17.273438-22.902344l38.726562-11.066406v-23.070312l-3.976562-2.3125c-7.535157-4.382813-12.023438-12.105469-12.023438-20.648438zm-176 280h8v16h-8c-5.585938 0-10.214844 3.089844-15.574219 6.65625-6.585937 4.375-14.027343 9.34375-24.457031 9.34375-12.945312 0-18.847656-11.800781-23.160156-20.414062-3.394532-6.785157-6.015625-11.585938-8.863282-11.585938-2.625 1.175781-6.386718 12.472656-8.410156 18.527344-4.589844 13.816406-9.808594 29.472656-23.566406 29.472656-12.273438 0-18.265625-9-22.640625-15.566406-3.992187-5.992188-5.953125-8.433594-9.328125-8.433594v-16c12.273438 0 18.265625 9 22.640625 15.566406 3.992187 5.992188 5.953125 8.433594 9.328125 8.433594 2.617188-1.175781 6.375-12.464844 8.390625-18.519531 4.601563-13.816407 9.816406-29.480469 23.585937-29.480469 12.949219 0 18.855469 11.808594 23.167969 20.425781 3.390625 6.773438 6.015625 11.574219 8.855469 11.574219 5.582031 0 10.214844-3.089844 15.574219-6.65625 6.585937-4.375 14.023437-9.34375 24.457031-9.34375zm-72-352h128v16h-128zm96 48h-96v-16h96zm16-16h16v16h-16zm-176 32h192v16h-192zm0 160h192v-128h-192zm16-112h160v96h-160zm-16 128h192v16h-192zm32 32h160v16h-160zm-16 16h-16v-16h16zm-16 16h192v16h-192zm208 0h144v-64h-144zm16-48h112v32h-112zm0 0" fill="url(#linear0)"/></svg>