<svg id="Capa_1" enable-background="new 0 0 512 512" height="512" viewBox="0 0 512 512" width="512" xmlns="http://www.w3.org/2000/svg" xmlns:xlink="http://www.w3.org/1999/xlink"><linearGradient id="SVGID_1_" gradientUnits="userSpaceOnUse" x1="256" x2="256" y1="512" y2="0"><stop offset="0" stop-color="#ffe59a"/><stop offset="1" stop-color="#ffffd5"/></linearGradient><linearGradient id="SVGID_2_" gradientUnits="userSpaceOnUse" x1="256" x2="256" y1="380.502" y2="131.5"><stop offset="0" stop-color="#ffde00"/><stop offset="1" stop-color="#fd5900"/></linearGradient><g><g><circle cx="256" cy="256" fill="url(#SVGID_1_)" r="256"/></g><g><g><path d="m335.941 131.5c-39.19 0-71.059 31.907-71.059 71.143s31.869 71.143 71.059 71.143 71.059-31.907 71.059-71.143-31.869-71.143-71.059-71.143zm32.927 59.645-35.529 35.571c-1.735 1.737-4.007 2.605-6.28 2.605s-4.545-.868-6.28-2.605l-17.765-17.786c-3.47-3.474-3.47-9.101 0-12.575s9.091-3.474 12.56 0l11.485 11.498 29.249-29.284c3.47-3.474 9.091-3.474 12.56 0 3.47 3.474 3.47 9.102 0 12.576zm-192.809-59.645c-39.19 0-71.059 31.907-71.059 71.143s31.869 71.143 71.059 71.143 71.059-31.907 71.059-71.143-31.869-71.143-71.059-71.143zm25.12 83.718c3.47 3.474 3.47 9.102 0 12.575-3.47 3.474-9.09 3.474-12.56 0l-12.56-12.575-12.56 12.575c-3.47 3.474-9.09 3.474-12.56 0s-3.47-9.102 0-12.575l12.56-12.575-12.56-12.575c-3.47-3.474-3.47-9.102 0-12.575s9.091-3.474 12.56 0l12.56 12.575 12.56-12.575c3.47-3.474 9.091-3.474 12.56 0 3.47 3.474 3.47 9.101 0 12.575l-12.56 12.575zm13.637 67.059c-5.291 2.596-10.833 4.66-16.648 6.167l31.74 86.238c1.734 4.727 6.974 6.942 11.398 5.263 4.597-1.685 6.957-6.809 5.257-11.412zm50.622 86.256c-1.7 4.603.659 9.727 5.257 11.412 4.424 1.68 9.664-.536 11.398-5.263l31.74-86.238c-5.815-1.507-11.357-3.571-16.648-6.167z" fill="url(#SVGID_2_)"/></g></g></g></svg>