<svg id="Capa_1" enable-background="new 0 0 512 512" height="512" viewBox="0 0 512 512" width="512" xmlns="http://www.w3.org/2000/svg" xmlns:xlink="http://www.w3.org/1999/xlink"><linearGradient id="SVGID_1_" gradientUnits="userSpaceOnUse" x1="256" x2="256" y1="512" y2="0"><stop offset="0" stop-color="#addcff"/><stop offset=".5028" stop-color="#eaf6ff"/><stop offset="1" stop-color="#eaf6ff"/></linearGradient><linearGradient id="SVGID_2_" gradientUnits="userSpaceOnUse" x1="256" x2="256" y1="407" y2="105"><stop offset="0" stop-color="#00c0ff"/><stop offset="1" stop-color="#5558ff"/></linearGradient><g><g><circle cx="256" cy="256" fill="url(#SVGID_1_)" r="256"/></g><g><g><path d="m290.943 105c-63.992 0-116.057 52.065-116.057 116.057 0 28.789 10.599 55.107 28.02 75.413l-12.136 12.136-6.312-6.312c-3.487-3.487-9.137-3.487-12.624 0l-64.219 64.219c-3.487 3.487-3.487 9.137 0 12.624l25.248 25.248c3.487 3.487 9.137 3.487 12.624 0l64.219-64.219c3.487-3.487 3.487-9.137 0-12.624l-6.312-6.312 12.136-12.136c20.306 17.421 46.624 28.02 75.413 28.02 63.992 0 116.057-52.065 116.057-116.057s-52.065-116.057-116.057-116.057zm52.039 94.497-63.582 63.582c-1.744 1.744-4.028 2.615-6.312 2.615s-4.568-.872-6.312-2.615l-35.71-35.71c-3.487-3.487-3.487-9.137 0-12.624s9.137-3.487 12.624 0l29.398 29.398 57.27-57.27c3.487-3.487 9.137-3.487 12.624 0s3.487 9.137 0 12.624z" fill="url(#SVGID_2_)"/></g></g></g></svg>