<svg id="Layer_1" enable-background="new 0 0 512 512" height="512" viewBox="0 0 512 512" width="512" xmlns="http://www.w3.org/2000/svg"><g><path d="m255.575 22c-135.31 0-245 109.69-245 245 0 60.342 21.828 115.577 58 158.272l79.091 61.728c32.559 16 69.181 25 107.909 25 36.275 0 70.705-7.892 101.677-22.04-27.487-14.32-46.31-43.066-46.31-76.144 0-47.319 38.497-85.816 85.816-85.816 34.262 0 63.886 20.189 77.633 49.29 16.742-33.15 26.183-70.615 26.183-110.29.001-135.31-109.689-245-244.999-245z" fill="#ffbd86"/><g><path d="m310.942 413.816c0-47.319 38.497-85.816 85.816-85.816 16.84 0 32.549 4.895 45.816 13.308v-315.308c0-5.523-4.477-10-10-10h-97v28c0 2.206-1.794 4-4 4h-152c-2.206 0-4-1.794-4-4v-28h-97c-5.523 0-10 4.477-10 10v399.272c21.726 25.642 48.625 46.755 79.092 61.728h204.329c-24.604-15.105-41.053-42.257-41.053-73.184z" fill="#22b27f"/><g><path d="m121 26c0-5.523 4.477-10 10-10h-52.425c-5.523 0-10 4.477-10 10v399.272c15.141 17.871 32.801 33.534 52.425 46.459z" fill="#09a76d"/></g><path d="m310.942 413.816c0-47.319 38.497-85.816 85.816-85.816 5.405 0 10.686.526 15.816 1.486v-290.486c0-1.657-1.343-3-3-3h-74v8c0 2.206-1.794 4-4 4h-152c-2.206 0-4-1.794-4-4v-8h-74c-1.657 0-3 1.343-3 3v405c0 1.657 1.343 3 3 3h216.047c-4.297-10.214-6.679-21.425-6.679-33.184z" fill="#fff"/><path d="m139 444v-405c0-1.657 1.343-3 3-3h-40.425c-1.657 0-3 1.343-3 3v405c0 1.657 1.343 3 3 3h40.425c-1.657 0-3-1.343-3-3z" fill="#f8f6f6"/><path d="m306.075 48v8.1h-20.693c-5.562 0-10.38 3.61-11.988 8.982-2.337 7.802-9.665 13.251-17.819 13.251s-15.482-5.449-17.819-13.25c-1.608-5.373-6.426-8.983-11.988-8.983h-20.693v-8.1h-15v10.6c0 6.893 5.607 12.5 12.5 12.5h21.376c4.747 13.177 17.499 22.233 31.624 22.233s26.876-9.056 31.624-22.233h21.376c6.893 0 12.5-5.607 12.5-12.5v-10.6z" fill="#9c9c9c"/><g><g><g><g><circle cx="176.701" cy="141.749" fill="#26a6fe" r="31.126"/></g><path d="m166 141.749c0-13.612 8.741-25.175 20.913-29.403-3.2-1.111-6.634-1.723-10.212-1.723-17.19 0-31.126 13.935-31.126 31.126 0 17.19 13.935 31.126 31.126 31.126 3.578 0 7.012-.612 10.212-1.723-12.172-4.228-20.913-15.792-20.913-29.403z" fill="#0593fc"/><g><path d="m174.596 158.566c-1.919 0-3.839-.732-5.303-2.196l-12.869-12.868c-2.929-2.929-2.929-7.678 0-10.606 2.929-2.93 7.678-2.929 10.606-.001l7.565 7.565 11.775-11.775c2.929-2.928 7.678-2.928 10.606 0 2.929 2.93 2.929 7.678 0 10.607l-17.078 17.078c-1.463 1.464-3.382 2.196-5.302 2.196z" fill="#fff"/></g></g><g><g><path d="m365.575 134.249h-131c-4.142 0-7.5-3.357-7.5-7.5s3.358-7.5 7.5-7.5h131c4.142 0 7.5 3.357 7.5 7.5s-3.358 7.5-7.5 7.5z" fill="#9c9c9c"/></g><g><path d="m322.575 164.249h-88c-4.142 0-7.5-3.357-7.5-7.5s3.358-7.5 7.5-7.5h88c4.142 0 7.5 3.357 7.5 7.5s-3.358 7.5-7.5 7.5z" fill="#9c9c9c"/></g></g></g></g><g><g><g><g><circle cx="176.701" cy="221.126" fill="#26a6fe" r="31.126"/></g><path d="m166 221.126c0-13.612 8.741-25.175 20.913-29.403-3.2-1.111-6.634-1.723-10.212-1.723-17.19 0-31.126 13.935-31.126 31.126 0 17.19 13.935 31.126 31.126 31.126 3.578 0 7.012-.612 10.212-1.723-12.172-4.228-20.913-15.792-20.913-29.403z" fill="#0593fc"/><g><path d="m174.596 237.943c-1.919 0-3.838-.732-5.303-2.196l-12.869-12.868c-2.929-2.929-2.929-7.678 0-10.606 2.929-2.93 7.678-2.929 10.606-.001l7.565 7.565 11.775-11.774c2.929-2.929 7.678-2.928 10.606.001 2.929 2.929 2.929 7.678 0 10.606l-17.078 17.077c-1.463 1.464-3.383 2.196-5.302 2.196z" fill="#fff"/></g></g><g><g><path d="m365.575 213.626h-131c-4.142 0-7.5-3.357-7.5-7.5s3.358-7.5 7.5-7.5h131c4.142 0 7.5 3.357 7.5 7.5s-3.358 7.5-7.5 7.5z" fill="#9c9c9c"/></g><g><path d="m322.575 243.626h-88c-4.142 0-7.5-3.357-7.5-7.5s3.358-7.5 7.5-7.5h88c4.142 0 7.5 3.357 7.5 7.5s-3.358 7.5-7.5 7.5z" fill="#9c9c9c"/></g></g></g></g><g><g><g><g><circle cx="176.701" cy="300.503" fill="#26a6fe" r="31.126"/></g><path d="m166 300.503c0-13.612 8.741-25.175 20.913-29.403-3.2-1.111-6.634-1.723-10.212-1.723-17.19 0-31.126 13.935-31.126 31.126 0 17.19 13.935 31.125 31.126 31.125 3.578 0 7.012-.612 10.212-1.723-12.172-4.227-20.913-15.791-20.913-29.402z" fill="#0593fc"/><g><path d="m174.596 317.32c-1.919 0-3.838-.732-5.303-2.196l-12.869-12.868c-2.929-2.929-2.929-7.678 0-10.606 2.929-2.93 7.678-2.929 10.606-.001l7.565 7.565 11.775-11.774c2.929-2.928 7.678-2.929 10.606.001 2.929 2.929 2.929 7.678 0 10.606l-17.078 17.077c-1.463 1.464-3.383 2.196-5.302 2.196z" fill="#fff"/></g></g><g><g><path d="m350.023 278.003h-115.448c-4.142 0-7.5 3.357-7.5 7.5s3.358 7.5 7.5 7.5h112.378z" fill="#9c9c9c"/></g><path d="m352.231 271.041-1.826.101-9.793 47.856c-.329 1.607 1.577 2.707 2.804 1.619l36.548-32.409-.794-1.613z" fill="#ffe5c2"/><path d="m363.529 277.563-11.298-6.523-1.826.101-9.793 47.856c-.329 1.607 1.577 2.707 2.804 1.619l13.807-12.243z" fill="#fed2a4"/><g><path d="m292.575 323.003h-58c-4.142 0-7.5-3.357-7.5-7.5s3.358-7.5 7.5-7.5h58c4.142 0 7.5 3.357 7.5 7.5s-3.358 7.5-7.5 7.5z" fill="#9c9c9c"/></g></g></g></g><g><g><g><g><circle cx="176.701" cy="379.88" fill="#d8ecfe" r="31.126"/></g></g><path d="m166 379.88c0-13.612 8.741-25.175 20.913-29.403-3.2-1.111-6.634-1.723-10.212-1.723-17.19 0-31.126 13.935-31.126 31.126 0 17.19 13.935 31.125 31.126 31.125 3.578 0 7.012-.612 10.212-1.723-12.172-4.227-20.913-15.791-20.913-29.402z" fill="#b3dafe"/><g><path d="m332.193 357.38h-97.618c-4.142 0-7.5 3.357-7.5 7.5s3.358 7.5 7.5 7.5h87.065c2.981-5.382 6.529-10.403 10.553-15z" fill="#9c9c9c"/><g><path d="m292.575 402.38h-58c-4.142 0-7.5-3.357-7.5-7.5s3.358-7.5 7.5-7.5h58c4.142 0 7.5 3.357 7.5 7.5s-3.358 7.5-7.5 7.5z" fill="#9c9c9c"/></g></g></g></g><g><path d="m331.575 49h-152c-2.761 0-5-2.239-5-5v-39c0-2.761 2.239-5 5-5h152c2.761 0 5 2.239 5 5v39c0 2.761-2.238 5-5 5z" fill="#0182fc"/></g><path d="m230 29c-2.761 0-5-2.239-5-5v-24h-45.425c-2.761 0-5 2.239-5 5v39c0 2.761 2.239 5 5 5h152c2.761 0 5-2.239 5-5v-15z" fill="#0172fb"/></g><g><g><path d="m497.157 68.159-14.78-8.533c-4.081-2.356-9.3-.958-11.656 3.123l-19.626 33.993.904 1.507 26.603 15.359 2.052.2 19.626-33.993c2.357-4.081.958-9.3-3.123-11.656z" fill="#9c9c9c"/></g><g><g><path d="m359.103 306.707-14.287-8.249-4.203 20.539c-.329 1.607 1.577 2.707 2.804 1.619z" fill="#5a5a5a"/></g><g><path d="m398.464 91.786h34.132v201.379h-34.132z" fill="#fac600" transform="matrix(.866 .5 -.5 .866 151.908 -181.978)"/></g></g><path d="m477.315 81.542c2.356-4.081 7.575-5.48 11.656-3.123l9.086 5.246 2.222-3.849c2.356-4.081.958-9.3-3.123-11.656l-14.78-8.533c-4.081-2.356-9.3-.958-11.656 3.123l-19.626 33.993.904 1.507 11.753 6.785z" fill="#838383"/><path d="m457.689 115.535 16.477 9.512 6.488-11.239-29.559-17.066-100.689 174.4 13.083 7.553z" fill="#e8b800"/></g><g><g><circle cx="396.759" cy="413.816" fill="#0182fc" r="86.816"/></g><path d="m349 413.816c0-41.232 28.745-75.75 67.288-84.61-6.277-1.443-12.814-2.206-19.529-2.206-47.947 0-86.816 38.869-86.816 86.816s38.869 86.816 86.816 86.816c6.715 0 13.252-.763 19.529-2.206-38.543-8.86-67.288-43.377-67.288-84.61z" fill="#0172fb"/><g><path d="m437.042 398.111h-21.933c-1.461 0-2.645-1.184-2.645-2.645v-21.933c0-1.461-1.184-2.645-2.645-2.645h-26.121c-1.461 0-2.645 1.184-2.645 2.645v21.933c0 1.461-1.184 2.645-2.645 2.645h-21.933c-1.461 0-2.645 1.184-2.645 2.645v26.121c0 1.461 1.184 2.645 2.645 2.645h21.933c1.461 0 2.645 1.184 2.645 2.645v21.933c0 1.461 1.184 2.645 2.645 2.645h26.121c1.461 0 2.645-1.184 2.645-2.645v-21.933c0-1.461 1.184-2.645 2.645-2.645h21.933c1.461 0 2.645-1.184 2.645-2.645v-26.121c0-1.461-1.184-2.645-2.645-2.645z" fill="#fff"/></g><g><path d="m400.012 446c-1.461 0-2.645-1.184-2.645-2.645v-21.933c0-1.461-1.184-2.645-2.645-2.645h-21.933c-1.461 0-2.645-1.184-2.645-2.645v-18.022h-13.669c-1.461 0-2.645 1.184-2.645 2.645v26.121c0 1.461 1.184 2.645 2.645 2.645h21.933c1.461 0 2.645 1.184 2.645 2.645v21.933c0 1.461 1.184 2.645 2.645 2.645h26.121c1.461 0 2.645-1.184 2.645-2.645v-8.099z" fill="#f8f6f6"/></g></g></g></svg>