<svg height="512" viewBox="0 0 128 128" width="512" xmlns="http://www.w3.org/2000/svg"><path d="m111.309 17.029h-90.618a8.2 8.2 0 0 0 -8.191 8.191v61.865a8.2 8.2 0 0 0 8.191 8.191h34.563v9.384h-8.661a5.039 5.039 0 0 0 -5.034 5.033v.245a5.039 5.039 0 0 0 5.034 5.033h38.814a5.038 5.038 0 0 0 5.033-5.033v-.245a5.038 5.038 0 0 0 -5.033-5.033h-8.661v-9.384h34.563a8.2 8.2 0 0 0 8.191-8.191v-61.865a8.2 8.2 0 0 0 -8.191-8.191z" fill="#e6e7e8"/><rect fill="#6dc9f7" height="76.247" rx="7.19" width="105" x="9.5" y="14.029"/><path d="m12.5 83.086v-61.867a7.19 7.19 0 0 1 7.19-7.19h-3a7.19 7.19 0 0 0 -7.19 7.19v61.867a7.19 7.19 0 0 0 7.19 7.19h3a7.19 7.19 0 0 1 -7.19-7.19z" fill="#fff"/><rect fill="#0089ef" height="4.171" rx="1.83" width="12.512" x="55.744" y="82.186"/><path d="m19.755 20.5h84.49a4.122 4.122 0 0 1 4.122 4.122v49.346a4.121 4.121 0 0 1 -4.121 4.121h-84.491a4.121 4.121 0 0 1 -4.121-4.121v-49.349a4.121 4.121 0 0 1 4.121-4.119z" fill="#d4fbff"/><rect fill="#ffd7e5" height="74.853" rx="2" transform="matrix(0 1 -1 0 96.811 -27.189)" width="18.323" x="52.839" y="-2.616"/><rect fill="#fa759e" height="20.749" rx="2" transform="matrix(0 1 -1 0 116.903 -7.097)" width="15.231" x="54.384" y="44.529"/><rect fill="#fa759e" height="20.749" rx="2" transform="matrix(0 1 -1 0 89.851 19.956)" width="15.231" x="27.332" y="44.529"/><rect fill="#fa759e" height="20.749" rx="2" transform="matrix(0 1 -1 0 143.956 -34.149)" width="15.231" x="81.436" y="44.529"/><rect fill="#6dc9f7" height="8.312" rx="4.033" width="46.882" x="38.559" y="101.659"/><path d="m52.254 90.276h19.492v11.383h-19.492z" fill="#6dc9f7"/><g fill="#3a2c60"><path d="m107.309 13.029h-22.489a1 1 0 0 0 0 2h22.489a6.2 6.2 0 0 1 6.191 6.191v61.865a6.2 6.2 0 0 1 -6.191 6.191h-90.618a6.2 6.2 0 0 1 -6.191-6.191v-61.865a6.2 6.2 0 0 1 6.191-6.191h51.987a1 1 0 0 0 0-2h-51.987a8.2 8.2 0 0 0 -8.191 8.191v61.865a8.2 8.2 0 0 0 8.191 8.191h34.563v9.383h-8.661a5.04 5.04 0 0 0 -5.034 5.034v.245a5.039 5.039 0 0 0 5.034 5.033h38.814a5.038 5.038 0 0 0 5.033-5.033v-.245a5.039 5.039 0 0 0 -5.033-5.034h-8.661v-9.383h34.563a8.2 8.2 0 0 0 8.191-8.191v-61.865a8.2 8.2 0 0 0 -8.191-8.191zm-22.869 92.664v.245a3.036 3.036 0 0 1 -3.033 3.033h-38.814a3.037 3.037 0 0 1 -3.034-3.033v-.245a3.037 3.037 0 0 1 3.034-3.034h38.814a3.037 3.037 0 0 1 3.033 3.034zm-13.694-5.034h-17.492v-9.383h17.492z"/><path d="m72.713 15.029h7.987a1 1 0 0 0 0-2h-7.987a1 1 0 0 0 0 2z"/><path d="m14.633 24.619v49.349a5.127 5.127 0 0 0 5.122 5.121h84.49a5.126 5.126 0 0 0 5.121-5.121v-49.349a5.126 5.126 0 0 0 -5.121-5.121h-84.49a5.127 5.127 0 0 0 -5.122 5.121zm92.733 0v49.349a3.124 3.124 0 0 1 -3.121 3.121h-84.49a3.125 3.125 0 0 1 -3.122-3.121v-49.349a3.125 3.125 0 0 1 3.122-3.119h84.49a3.124 3.124 0 0 1 3.121 3.119z"/><path d="m52.656 67.792h18.688a1 1 0 0 0 0-2h-18.688a1 1 0 0 0 0 2z"/><path d="m52.656 72.943h18.688a1 1 0 0 0 0-2h-18.688a1 1 0 1 0 0 2z"/><path d="m25.6 67.792h18.692a1 1 0 0 0 0-2h-18.692a1 1 0 0 0 0 2z"/><path d="m25.6 72.943h18.692a1 1 0 0 0 0-2h-18.692a1 1 0 0 0 0 2z"/><path d="m79.708 67.792h18.692a1 1 0 0 0 0-2h-18.692a1 1 0 0 0 0 2z"/><path d="m79.708 72.943h18.692a1 1 0 0 0 0-2h-18.692a1 1 0 0 0 0 2z"/></g></svg>