<svg id="Capa_1" enable-background="new 0 0 512 512" height="512" viewBox="0 0 512 512" width="512" xmlns="http://www.w3.org/2000/svg" xmlns:xlink="http://www.w3.org/1999/xlink"><linearGradient id="SVGID_1_" gradientUnits="userSpaceOnUse" x1="256" x2="256" y1="512" y2="0"><stop offset="0" stop-color="#addcff"/><stop offset=".5028" stop-color="#eaf6ff"/><stop offset="1" stop-color="#eaf6ff"/></linearGradient><linearGradient id="SVGID_2_" gradientUnits="userSpaceOnUse" x1="256" x2="256" y1="140.529" y2="371.471"><stop offset="0" stop-color="#5558ff"/><stop offset="1" stop-color="#00c0ff"/></linearGradient><g><circle cx="256" cy="256" fill="url(#SVGID_1_)" r="256"/><g><g><path d="m389.235 149.412c0-4.91-3.973-8.882-8.882-8.882h-248.706c-4.91 0-8.882 3.973-8.882 8.882v168.765h266.471v-168.765zm-71.059 87.187v28.283c0 14.694-11.953 26.647-26.647 26.647h-53.294c-14.694 0-26.647-11.953-26.647-26.647v-12.715c-21.985-13.187-35.529-36.569-35.529-62.533v-13.575c0-4.909 3.973-8.882 8.882-8.882h17.765c4.91 0 8.882 3.973 8.882 8.882 0 4.91-3.973 8.883-8.882 8.883h-8.882v4.692c0 19.595 10.097 37.351 26.647 47.353 16.55-10.001 26.647-27.757 26.647-47.353v-4.692h-8.882c-4.91 0-8.882-3.973-8.882-8.883 0-4.909 3.973-8.882 8.882-8.882h17.764c4.91 0 8.882 3.973 8.882 8.882v13.575c0 25.964-13.545 49.346-35.529 62.533v12.715c0 4.901 3.981 8.882 8.882 8.882h53.294c4.901 0 8.882-3.981 8.882-8.882v-28.283c-10.317-3.679-17.765-13.446-17.765-25.011 0-14.694 11.953-26.647 26.647-26.647s26.647 11.953 26.647 26.647c.001 11.565-7.447 21.332-17.764 25.011zm-8.882-33.893c-4.901 0-8.882 3.981-8.882 8.882s3.981 8.882 8.882 8.882 8.882-3.981 8.882-8.882-3.981-8.882-8.882-8.882zm88.824 133.235h-284.236c-4.905 0-8.882 3.976-8.882 8.882v8.883c0 9.811 7.953 17.765 17.765 17.765h266.471c9.812 0 17.765-7.954 17.765-17.765v-8.883c-.001-4.906-3.978-8.882-8.883-8.882z" fill="url(#SVGID_2_)"/></g></g></g></svg>