<svg height="511pt" viewBox="1 -34 511.999 511" width="511pt" xmlns="http://www.w3.org/2000/svg"><path d="m418.710938 436.269531h-380.390626c-17.015624 0-30.804687-13.789062-30.804687-30.804687v-309.472656c0-17.011719 13.789063-30.804688 30.804687-30.804688h380.390626c17.011718 0 30.804687 13.792969 30.804687 30.804688v309.472656c0 17.015625-13.792969 30.804687-30.804687 30.804687zm0 0" fill="#0396fd"/><path d="m449.511719 95.996094v309.472656c0 17.011719-13.785157 30.800781-30.800781 30.800781h-30.496094c17.011718 0 30.808594-13.789062 30.808594-30.800781v-309.472656c0-17.011719-13.796876-30.808594-30.808594-30.808594h30.496094c17.015624 0 30.800781 13.796875 30.800781 30.808594zm0 0" fill="#0077f0"/><path d="m473.679688 379.097656h-380.390626c-17.011718 0-30.804687-13.792968-30.804687-30.808594v-309.46875c0-17.015624 13.792969-30.804687 30.804687-30.804687h380.390626c17.015624 0 30.804687 13.789063 30.804687 30.804687v309.46875c0 17.015626-13.789063 30.808594-30.804687 30.808594zm0 0" fill="#c9f0ff"/><path d="m504.480469 38.820312v309.472657c0 17.015625-13.785157 30.800781-30.796875 30.800781h-30.5c17.011718 0 30.808594-13.785156 30.808594-30.800781v-309.472657c0-17.011718-13.796876-30.808593-30.808594-30.808593h30.5c17.011718 0 30.796875 13.796875 30.796875 30.808593zm0 0" fill="#9ae7fd"/><path d="m504.484375 302.214844-113.300781-127.6875c-1.914063-2.15625-5.25-2.253906-7.289063-.21875l-67.75 67.71875-87.398437-98.492188c-1.914063-2.15625-5.246094-2.257812-7.289063-.21875l-158.972656 158.898438v46.074218c0 17.015626 13.792969 30.808594 30.804687 30.808594h380.390626c17.015624 0 30.804687-13.792968 30.804687-30.808594zm0 0" fill="#80e0dc"/><path d="m504.480469 302.214844v46.078125c0 17.015625-13.785157 30.800781-30.796875 30.800781h-30.5c17.011718 0 30.808594-13.785156 30.808594-30.800781v-80.4375zm0 0" fill="#00a8b0"/><path d="m459.171875 101.3125c0 24.363281-19.75 44.113281-44.113281 44.113281-24.363282 0-44.113282-19.75-44.113282-44.113281s19.75-44.113281 44.113282-44.113281c24.363281 0 44.113281 19.75 44.113281 44.113281zm0 0" fill="#ffd86e"/><path d="m459.167969 101.316406c0 24.359375-19.75 44.109375-44.109375 44.109375-12.375 0-23.5625-5.097656-31.578125-13.3125 5.171875 2.132813 10.839843 3.304688 16.78125 3.304688 24.359375 0 44.109375-19.75 44.109375-44.109375 0-11.984375-4.777344-22.847656-12.53125-30.804688 16.035156 6.605469 27.328125 22.386719 27.328125 40.8125zm0 0" fill="#ffb509"/><path d="m415.058594 49.683594c-28.46875 0-51.628906 23.160156-51.628906 51.628906s23.160156 51.628906 51.628906 51.628906 51.628906-23.160156 51.628906-51.628906-23.160156-51.628906-51.628906-51.628906zm0 88.226562c-20.183594 0-36.597656-16.417968-36.597656-36.597656s16.417968-36.597656 36.597656-36.597656c20.179687 0 36.597656 16.417968 36.597656 36.597656s-16.417969 36.597656-36.597656 36.597656zm0 0"/><path d="m473.679688.5h-380.390626c-21.128906 0-38.316406 17.1875-38.316406 38.316406v18.859375h-16.652344c-21.128906 0-38.320312 17.1875-38.320312 38.320313v309.46875c0 21.132812 17.191406 38.320312 38.320312 38.320312h251.746094c4.152344 0 7.515625-3.363281 7.515625-7.515625 0-4.148437-3.363281-7.511719-7.515625-7.511719h-251.746094c-12.84375 0-23.292968-10.449218-23.292968-23.292968v-309.46875c0-12.84375 10.449218-23.292969 23.292968-23.292969h16.652344v275.589844c0 21.128906 17.1875 38.316406 38.316406 38.316406h348.710938v18.855469c0 12.84375-10.449219 23.292968-23.289062 23.292968h-81.050782c-4.152344 0-7.515625 3.363282-7.515625 7.511719 0 4.152344 3.363281 7.515625 7.515625 7.515625h81.050782c21.128906 0 38.316406-17.1875 38.316406-38.320312v-18.855469h16.652344c21.128906 0 38.320312-17.1875 38.320312-38.316406v-309.476563c0-21.128906-17.191406-38.316406-38.320312-38.316406zm23.292968 281.925781-100.167968-112.882812c-2.277344-2.570313-5.558594-4.105469-8.992188-4.207031-3.429688-.125-6.800781 1.230468-9.230469 3.660156l-62.109375 62.082031-82.105468-92.53125c-2.277344-2.570313-5.558594-4.101563-8.992188-4.203125-3.46875-.125-6.800781 1.230469-9.230469 3.660156l-58.222656 58.195313c-2.9375 2.933593-2.9375 7.691406-.003906 10.628906 2.933593 2.9375 7.691406 2.933594 10.625 0l56.347656-56.316406 106.714844 120.265625c1.484375 1.671875 3.550781 2.523437 5.625 2.523437 1.773437 0 3.554687-.621093 4.984375-1.890625 3.105468-2.757812 3.386718-7.503906.632812-10.609375l-16.382812-18.464843 60.863281-60.832032 109.644531 123.566406v43.21875c0 12.84375-10.449218 23.292969-23.292968 23.292969h-380.390626c-12.839843 0-23.289062-10.449219-23.289062-23.292969v-42.960937l66.082031-66.046875c2.933594-2.9375 2.9375-7.695312.003907-10.628906-2.9375-2.9375-7.695313-2.9375-10.628907-.003906l-55.457031 55.433593v-245.265625c0-12.839844 10.449219-23.289062 23.289062-23.289062h380.390626c12.84375 0 23.292968 10.449218 23.292968 23.289062zm0 0"/></svg>