<svg height="512" viewBox="0 0 128 128" width="512" xmlns="http://www.w3.org/2000/svg"><path d="m111.52 17.029h-91.041a7.988 7.988 0 0 0 -7.979 7.98v62.291a7.988 7.988 0 0 0 7.979 7.979h34.775v9.383h-8.661a5.038 5.038 0 0 0 -5.033 5.033v.246a5.039 5.039 0 0 0 5.033 5.034h38.814a5.039 5.039 0 0 0 5.033-5.034v-.246a5.038 5.038 0 0 0 -5.033-5.033h-8.661v-9.386h34.775a7.988 7.988 0 0 0 7.979-7.976v-62.291a7.989 7.989 0 0 0 -7.98-7.98z" fill="#e6e7e8"/><path d="m16.479 14.029h91.041a6.98 6.98 0 0 1 6.98 6.98v62.291a6.979 6.979 0 0 1 -6.979 6.979h-91.042a6.979 6.979 0 0 1 -6.979-6.979v-62.292a6.979 6.979 0 0 1 6.979-6.979z" fill="#6dc9f7"/><rect fill="#0089ef" height="4.171" rx="1.83" width="12.512" x="55.744" y="82.186"/><path d="m19.755 20.5h84.49a4.122 4.122 0 0 1 4.122 4.122v49.346a4.121 4.121 0 0 1 -4.121 4.121h-84.491a4.121 4.121 0 0 1 -4.121-4.121v-49.349a4.122 4.122 0 0 1 4.121-4.119z" fill="#d4fbff"/><path d="m46.468 36.224h-1.893a2.016 2.016 0 0 0 -2.017 2.016v27.934h5.926v-27.934a2.015 2.015 0 0 0 -2.016-2.016z" fill="#fa759e"/><path d="m58.094 40.891h-2.221a1.853 1.853 0 0 0 -1.852 1.853v23.43h5.926v-23.43a1.853 1.853 0 0 0 -1.853-1.853z" fill="#fa759e"/><path d="m69.441 37.646h-1.99a1.968 1.968 0 0 0 -1.968 1.968v26.56h5.926v-26.56a1.968 1.968 0 0 0 -1.968-1.968z" fill="#fa759e"/><path d="m81.1 43.023h-2.382a1.773 1.773 0 0 0 -1.773 1.777v21.374h5.926v-21.374a1.772 1.772 0 0 0 -1.771-1.777z" fill="#fa759e"/><rect fill="#6dc9f7" height="8.312" rx="4.033" width="46.882" x="38.559" y="101.659"/><path d="m52.254 90.276h19.492v11.383h-19.492z" fill="#6dc9f7"/><path d="m52.254 90.276h3v11.383h-3z" fill="#fff"/><g fill="#3a2c60"><path d="m104.245 79.089a5.126 5.126 0 0 0 5.121-5.121v-49.349a5.126 5.126 0 0 0 -5.121-5.121h-84.49a5.126 5.126 0 0 0 -5.121 5.121v49.349a5.126 5.126 0 0 0 5.121 5.121zm-87.611-5.121v-49.349a3.125 3.125 0 0 1 3.121-3.119h84.49a3.125 3.125 0 0 1 3.121 3.121v49.347a3.124 3.124 0 0 1 -3.121 3.121h-84.49a3.124 3.124 0 0 1 -3.121-3.121z"/><path d="m36.242 72.167h52.778a1 1 0 1 0 0-2h-51.778v-38.858a1 1 0 0 0 -2 0v39.858a1 1 0 0 0 1 1z"/><path d="m45.1 33.174 11.462 5.378a.987.987 0 0 0 .769.033l11.038-4.055 11.067 5.936a1 1 0 0 0 1.146-.143l4.1-3.741 2.678 2.8a.441.441 0 0 0 .74-.182l2.64-9.01a.442.442 0 0 0 -.528-.553l-9.126 2.222a.441.441 0 0 0 -.215.733l2.429 2.543-3.543 3.234-10.838-5.813a1 1 0 0 0 -.819-.056l-11.07 4.064-11.084-5.2a1 1 0 1 0 -.849 1.811z"/><path d="m107.521 13.028h-91.042a7.989 7.989 0 0 0 -7.979 7.98v27.659a1 1 0 0 0 2 0v-27.659a5.987 5.987 0 0 1 5.979-5.98h91.042a5.987 5.987 0 0 1 5.979 5.98v62.292a5.987 5.987 0 0 1 -5.979 5.98h-91.041a5.987 5.987 0 0 1 -5.98-5.98v-16.445a1 1 0 0 0 -2 0v16.445a7.99 7.99 0 0 0 7.98 7.981h34.774v9.382h-8.661a5.039 5.039 0 0 0 -5.033 5.034v.245a5.038 5.038 0 0 0 5.033 5.033h38.814a5.038 5.038 0 0 0 5.033-5.033v-.245a5.039 5.039 0 0 0 -5.033-5.034h-8.661v-9.386h34.775a7.989 7.989 0 0 0 7.979-7.977v-62.292a7.989 7.989 0 0 0 -7.979-7.98zm-23.081 92.665v.245a3.036 3.036 0 0 1 -3.033 3.033h-38.814a3.036 3.036 0 0 1 -3.033-3.033v-.245a3.037 3.037 0 0 1 3.033-3.034h38.814a3.037 3.037 0 0 1 3.033 3.034zm-13.694-5.034h-17.492v-9.382h17.492z"/><path d="m9.5 64a1 1 0 0 0 1-1v-10.333a1 1 0 0 0 -2 0v10.333a1 1 0 0 0 1 1z"/></g></svg>