<svg id="Capa_1" enable-background="new 0 0 512 512" height="512" viewBox="0 0 512 512" width="512" xmlns="http://www.w3.org/2000/svg" xmlns:xlink="http://www.w3.org/1999/xlink"><linearGradient id="SVGID_1_" gradientUnits="userSpaceOnUse" x1="256" x2="256" y1="512" y2="0"><stop offset="0" stop-color="#addcff"/><stop offset=".5028" stop-color="#eaf6ff"/><stop offset="1" stop-color="#eaf6ff"/></linearGradient><linearGradient id="SVGID_2_" gradientUnits="userSpaceOnUse" x1="256" x2="256" y1="371.5" y2="140.5"><stop offset="0" stop-color="#5558ff"/><stop offset="1" stop-color="#00c0ff"/></linearGradient><g><circle cx="256" cy="256" fill="url(#SVGID_1_)" r="256"/></g><g><g><path d="m155.484 149.844c-12.994 4.33-25.277 8.425-41.601 8.425-4.91 0-8.882 3.974-8.882 8.885v195.461c0 4.911 3.973 8.885 8.882 8.885 19.205 0 33.448-4.746 47.222-9.345 12.994-4.329 25.277-8.424 41.601-8.424 24.309 0 38.902 8.895 44.412 13.046v-216.149c-9.949-5.075-24.708-10.128-44.412-10.128-19.205 0-33.448 4.746-47.222 9.344zm73.8 144.02c-.659 4.876-5.413 8.225-9.976 7.635-5.187-.686-10.721-1.076-16.602-1.076-20.28 0-36.067 4.677-50.501 9.475-4.644 1.534-9.681-.968-11.224-5.631-1.544-4.659.971-9.691 5.638-11.236 15.804-5.249 33.153-10.377 56.087-10.377 6.419 0 12.786.417 18.927 1.232 4.875.642 8.292 5.11 7.651 9.978zm0-44.424c-.659 4.876-5.413 8.243-9.976 7.635-5.187-.685-10.721-1.076-16.602-1.076-20.28 0-36.067 4.677-50.501 9.475-4.644 1.534-9.681-.968-11.224-5.631-1.544-4.659.971-9.691 5.638-11.236 15.804-5.25 33.153-10.377 56.087-10.377 6.419 0 12.786.417 18.927 1.232 4.875.643 8.292 5.111 7.651 9.978zm0-44.422c-.659 4.876-5.413 8.269-9.976 7.635-5.187-.686-10.721-1.076-16.602-1.076-20.28 0-36.067 4.676-50.501 9.475-4.644 1.534-9.681-.968-11.224-5.631-1.544-4.659.971-9.691 5.638-11.236 15.804-5.249 33.153-10.377 56.087-10.377 6.419 0 12.786.417 18.927 1.232 4.875.642 8.292 5.11 7.651 9.978zm168.834-46.749c-16.325 0-28.607-4.095-41.601-8.425-13.775-4.598-28.018-9.344-47.222-9.344-19.703 0-34.463 5.055-44.412 10.13v216.152c5.558-4.184 20.144-13.051 44.412-13.051 16.325 0 28.607 4.095 41.601 8.424 13.774 4.599 28.018 9.345 47.222 9.345 4.91 0 8.882-3.974 8.882-8.885v-195.461c0-4.911-3.973-8.885-8.882-8.885zm-27.098 145.998c-1.542 4.659-6.577 7.166-11.224 5.631-14.434-4.798-30.221-9.475-50.501-9.475-5.881 0-11.415.391-16.602 1.076-4.649.564-9.316-2.759-9.976-7.635-.642-4.868 2.776-9.336 7.651-9.978 6.141-.815 12.508-1.232 18.927-1.232 22.934 0 40.283 5.128 56.087 10.377 4.666 1.544 7.181 6.576 5.638 11.236zm0-44.423c-1.542 4.659-6.577 7.166-11.224 5.631-14.434-4.798-30.221-9.475-50.501-9.475-5.881 0-11.415.391-16.602 1.076-4.649.59-9.316-2.768-9.976-7.635-.642-4.867 2.776-9.335 7.651-9.978 6.141-.815 12.508-1.232 18.927-1.232 22.934 0 40.283 5.127 56.087 10.377 4.666 1.544 7.181 6.577 5.638 11.236zm0-44.424c-1.542 4.66-6.577 7.166-11.224 5.631-14.434-4.798-30.221-9.475-50.501-9.475-5.881 0-11.415.39-16.602 1.076-4.649.607-9.316-2.759-9.976-7.635-.642-4.868 2.776-9.336 7.651-9.978 6.141-.815 12.508-1.232 18.927-1.232 22.934 0 40.283 5.128 56.087 10.377 4.666 1.545 7.181 6.577 5.638 11.236z" fill="url(#SVGID_2_)"/></g></g></svg>