<svg id="Capa_1" enable-background="new 0 0 512 512" height="512" viewBox="0 0 512 512" width="512" xmlns="http://www.w3.org/2000/svg" xmlns:xlink="http://www.w3.org/1999/xlink"><linearGradient id="SVGID_1_" gradientUnits="userSpaceOnUse" x1="256" x2="256" y1="512" y2="0"><stop offset="0" stop-color="#c3ffe8"/><stop offset=".9973" stop-color="#f0fff4"/></linearGradient><linearGradient id="SVGID_2_" gradientUnits="userSpaceOnUse" x1="256" x2="256" y1="407" y2="105"><stop offset="0" stop-color="#9cffac"/><stop offset="1" stop-color="#00b59c"/></linearGradient><g><g><circle cx="256" cy="256" fill="url(#SVGID_1_)" r="256"/></g><g><g><path d="m300.318 122.765h-19.251c-3.652-10.34-13.503-17.765-25.067-17.765s-21.415 7.425-25.067 17.765h-19.251v35.529h88.636zm44.318 0h-26.591v44.412c0 4.91-3.964 8.882-8.864 8.882h-106.363c-4.899 0-8.864-3.973-8.864-8.882v-44.412h-26.591c-4.899 0-8.864 3.973-8.864 8.882v266.471c0 4.91 3.964 8.882 8.864 8.882h177.273c4.899 0 8.864-3.973 8.864-8.882v-266.471c0-4.91-3.964-8.882-8.864-8.882zm-88.636 71.058c14.663 0 26.591 11.953 26.591 26.647 0 8.431-4.051 16.455-10.82 21.46-4.328 3.192-6.907 8.292-6.907 13.653 0 4.91-3.964 9.091-8.864 9.091s-8.864-3.765-8.864-8.674c0-11.398 5.28-21.85 14.109-28.373 2.302-1.691 3.618-4.302 3.618-7.156 0-4.901-3.982-8.882-8.864-8.882s-8.864 3.981-8.864 8.882c0 4.91-3.964 8.882-8.864 8.882s-8.864-3.973-8.864-8.882c.002-14.694 11.93-26.648 26.593-26.648zm8.864 97.706c0 4.905-3.969 8.882-8.864 8.882s-8.864-3.977-8.864-8.882c0-4.906 3.969-8.882 8.864-8.882s8.864 3.976 8.864 8.882zm26.591 79.942h-70.909c-4.899 0-8.864-3.973-8.864-8.882 0-4.91 3.964-8.882 8.864-8.882h70.909c4.899 0 8.864 3.973 8.864 8.882-.001 4.909-3.965 8.882-8.864 8.882zm17.727-35.53h-106.364c-4.899 0-8.864-3.973-8.864-8.882 0-4.91 3.964-8.882 8.864-8.882h106.364c4.899 0 8.864 3.973 8.864 8.882-.001 4.909-3.965 8.882-8.864 8.882z" fill="url(#SVGID_2_)"/></g></g></g></svg>