<?xml version="1.0" standalone="no"?>
<!DOCTYPE svg PUBLIC "-//W3C//DTD SVG 20010904//EN"
 "http://www.w3.org/TR/2001/REC-SVG-20010904/DTD/svg10.dtd">
<svg version="1.0" xmlns="http://www.w3.org/2000/svg"
 width="443.000000pt" height="289.000000pt" viewBox="0 0 443.000000 289.000000"
 preserveAspectRatio="xMidYMid meet">

<g transform="translate(0.000000,289.000000) scale(0.100000,-0.100000)"
fill="#000000" stroke="none">
<path d="M1930 2539 c-42 -17 -80 -61 -86 -99 -6 -34 -7 -35 -55 -36 -84 -1
-144 -62 -144 -145 0 -44 -2 -49 -23 -49 -38 0 -99 -37 -122 -75 -30 -48 -31
-120 -3 -167 l21 -36 -39 -18 c-66 -29 -119 -107 -119 -174 0 -67 64 -160 125
-180 l34 -11 -21 -34 c-26 -45 -27 -112 -1 -161 22 -42 82 -84 123 -84 23 0
25 -3 25 -49 0 -84 62 -146 146 -146 41 0 49 -3 49 -18 0 -40 32 -86 74 -107
23 -11 51 -20 61 -20 10 0 38 9 61 20 46 23 74 67 74 119 0 35 14 41 30 11 19
-35 113 -97 180 -119 180 -58 361 -44 468 37 54 41 60 48 108 120 50 76 74
153 81 257 5 77 0 114 -30 265 -20 96 -41 229 -47 295 -15 171 -34 249 -80
341 -49 97 -126 178 -213 226 -57 30 -69 33 -152 33 -79 0 -96 -4 -144 -29
-63 -33 -151 -117 -172 -163 -7 -18 -17 -33 -20 -33 -4 0 -9 36 -10 79 -4 68
-8 83 -29 107 -27 29 -78 54 -107 53 -10 0 -29 -5 -43 -10z m620 -31 c98 -30
204 -130 262 -249 43 -89 52 -130 78 -355 11 -96 28 -211 39 -257 49 -206 48
-311 -4 -439 -86 -211 -264 -300 -510 -253 -114 21 -189 57 -242 114 -23 25
-72 79 -109 119 l-67 72 -64 0 c-50 0 -67 -4 -84 -21 -27 -27 -67 -21 -92 13
-17 23 -19 31 -9 53 6 14 23 30 37 37 22 10 30 8 55 -10 18 -14 44 -22 67 -22
l37 0 -69 70 c-57 58 -75 70 -102 70 -35 0 -63 29 -63 66 0 30 47 66 74 58 32
-9 58 -44 52 -69 -4 -17 10 -37 69 -94 l75 -72 0 39 c0 26 -7 45 -20 57 -41
37 -14 105 42 105 33 0 68 -31 68 -60 0 -11 -9 -29 -20 -40 -16 -16 -20 -33
-20 -87 0 -64 2 -69 37 -105 20 -21 40 -38 43 -38 3 0 3 72 0 159 l-5 160 -89
90 -89 91 -57 0 c-44 0 -61 -4 -75 -20 -26 -29 -69 -26 -94 7 -47 59 24 128
83 82 16 -12 43 -22 62 -23 19 -1 34 0 34 1 0 1 -29 29 -65 64 l-65 62 0 74
c0 60 -4 77 -20 93 -11 11 -20 29 -20 40 0 25 42 70 65 70 23 0 65 -45 65 -70
0 -11 -9 -29 -20 -40 -15 -15 -20 -33 -20 -78 0 -57 0 -58 60 -117 l60 -59 0
33 c0 18 -9 44 -20 58 -24 31 -25 51 -4 81 29 42 114 15 114 -37 0 -10 -9 -30
-20 -44 -15 -19 -20 -40 -20 -84 l1 -58 85 -88 86 -88 19 20 c30 32 63 26 117
-22 55 -49 134 -99 235 -148 37 -18 67 -37 67 -43 0 -5 -30 -6 -74 -2 -113 10
-154 -16 -159 -103 -2 -37 -4 -41 -22 -36 -11 3 -44 8 -72 12 -60 7 -66 -3
-38 -57 11 -22 25 -31 53 -35 20 -4 53 -13 73 -21 20 -9 49 -14 65 -12 26 3
30 8 35 46 11 87 50 91 139 16 130 -109 233 -111 278 -5 18 44 26 387 11 496
-10 71 -47 160 -94 224 -34 47 -40 91 -26 203 11 90 10 101 -9 160 -44 132
-110 190 -222 196 -107 6 -174 -27 -231 -114 -60 -92 -56 -179 13 -296 29 -48
40 -78 40 -107 0 -29 4 -41 15 -41 8 0 20 -11 27 -24 7 -13 35 -42 61 -65 47
-40 49 -41 77 -26 37 19 74 19 90 0 11 -13 7 -22 -23 -53 -33 -33 -37 -44 -37
-87 0 -28 9 -83 20 -124 21 -79 25 -111 13 -111 -19 1 -159 79 -214 120 -77
56 -173 167 -208 240 -22 48 -26 68 -26 157 l0 102 -50 50 c-39 40 -57 51 -82
51 -55 0 -80 57 -45 100 36 45 112 15 112 -44 0 -12 14 -35 32 -52 25 -23 30
-25 24 -9 -4 11 -10 43 -13 72 -5 46 -2 58 30 115 42 74 114 147 175 178 78
39 146 44 232 18z"/>
<path d="M1985 2200 c-4 -7 -3 -16 3 -22 14 -14 45 -2 40 15 -6 16 -34 21 -43
7z"/>
<path d="M1761 2111 c-17 -11 -7 -41 13 -41 22 0 30 20 15 36 -9 8 -19 10 -28
5z"/>
<path d="M1927 1943 c-14 -13 -7 -33 11 -33 24 0 32 8 25 26 -5 15 -25 19 -36
7z"/>
<path d="M1726 1742 c-9 -14 12 -35 28 -29 23 9 20 37 -3 37 -11 0 -22 -4 -25
-8z"/>
<path d="M1753 1514 c-8 -22 18 -37 36 -20 7 8 10 19 7 25 -10 16 -36 13 -43
-5z"/>
<path d="M1983 1484 c-7 -20 17 -37 34 -23 15 13 6 39 -13 39 -8 0 -17 -7 -21
-16z"/>
<path d="M1785 1290 c-4 -7 -3 -16 3 -22 14 -14 45 -2 40 15 -6 16 -34 21 -43
7z"/>
<path d="M2545 780 c-14 -16 -19 -42 -23 -124 -6 -126 3 -191 29 -217 25 -25
45 -24 74 6 21 20 25 34 25 80 0 52 -1 55 -25 55 -23 0 -25 -4 -25 -44 0 -25
-4 -48 -10 -51 -6 -4 -10 40 -10 124 0 81 4 131 10 131 6 0 10 -22 10 -50 0
-47 2 -50 25 -50 24 0 25 3 25 60 0 47 -4 64 -20 80 -26 26 -62 26 -85 0z"/>
<path d="M2850 780 c-18 -18 -20 -33 -20 -164 0 -130 2 -146 21 -170 26 -33
52 -33 78 0 19 24 21 40 21 170 0 131 -2 146 -20 164 -11 11 -29 20 -40 20
-11 0 -29 -9 -40 -20z m50 -165 c0 -77 -4 -125 -10 -125 -6 0 -10 48 -10 125
0 77 4 125 10 125 6 0 10 -48 10 -125z"/>
<path d="M1457 783 c-4 -3 -7 -12 -7 -20 0 -9 18 -13 65 -13 75 0 97 -15 114
-77 17 -59 13 -105 -11 -153 l-23 -45 -63 -3 -63 -3 3 98 3 98 47 3 c41 3 49
0 64 -23 13 -20 15 -33 7 -58 -8 -28 -13 -32 -43 -32 -34 0 -35 1 -41 45 -7
60 -21 30 -17 -36 l3 -49 42 -3 c36 -3 44 1 60 25 25 37 24 114 -1 142 -16 17
-31 21 -83 21 l-63 0 0 -135 0 -135 66 0 c59 0 69 3 94 28 66 67 66 231 0 302
-25 27 -34 30 -87 30 -33 0 -63 -3 -66 -7z"/>
<path d="M1690 610 l0 -180 100 0 100 0 0 60 0 60 -80 0 c-73 0 -80 -2 -80
-20 0 -18 7 -20 70 -20 63 0 70 -2 70 -20 0 -18 -7 -20 -80 -20 l-80 0 0 140
0 140 80 0 c79 0 80 0 80 -25 0 -24 -2 -25 -70 -25 l-70 0 0 -55 0 -55 66 0
c57 0 65 2 62 18 -2 13 -15 18 -56 20 -44 3 -53 6 -50 20 3 14 17 18 71 20
l67 3 0 59 0 60 -100 0 -100 0 0 -180z"/>
<path d="M1930 610 l0 -180 105 0 105 0 0 60 0 60 -86 0 c-76 0 -85 -2 -82
-17 3 -15 16 -19 76 -21 64 -3 72 -5 72 -22 0 -18 -7 -20 -85 -20 l-85 0 0
140 0 140 86 0 c83 0 85 -1 82 -22 -3 -21 -9 -23 -75 -26 l-73 -3 0 -54 0 -55
65 0 c58 0 65 2 65 20 0 18 -7 20 -56 20 -47 0 -55 3 -52 18 3 14 16 18 76 20
l73 3 -3 57 -3 57 -102 3 -103 3 0 -181z"/>
<path d="M2177 783 c-4 -3 -7 -30 -7 -60 l0 -53 86 0 c64 0 85 3 82 13 -3 8
-30 13 -76 15 -69 3 -72 4 -72 28 0 25 1 25 77 22 75 -3 78 -4 87 -30 6 -18 6
-38 0 -55 -9 -27 -12 -28 -97 -31 l-87 -3 0 -99 0 -100 30 0 30 0 0 61 c0 37
-4 58 -10 54 -5 -3 -10 -22 -10 -41 0 -19 -4 -34 -10 -34 -6 0 -10 27 -10 60
l0 60 73 0 c95 0 112 15 112 100 0 85 -17 100 -115 100 -42 0 -80 -3 -83 -7z"/>
<path d="M2420 610 l0 -180 45 0 c43 0 45 1 45 30 0 17 1 33 3 38 1 4 -8 8
-20 10 -19 3 -23 10 -23 38 0 27 4 34 20 34 16 0 20 7 20 35 0 28 -4 35 -20
35 -16 0 -20 7 -20 35 0 28 4 35 20 35 16 0 20 7 20 35 0 35 0 35 -45 35 l-45
0 0 -180z"/>
<path d="M2680 610 l0 -180 25 0 c24 0 25 2 25 75 0 43 4 75 10 75 6 0 10 -32
10 -75 0 -73 1 -75 25 -75 l25 0 0 180 0 180 -25 0 c-24 0 -25 -2 -25 -65 0
-37 -4 -65 -10 -65 -6 0 -10 28 -10 65 0 63 -1 65 -25 65 l-25 0 0 -180z"/>
<path d="M2403 323 c-12 -23 -9 -61 5 -75 14 -14 44 -6 50 12 5 13 3 13 -12 1
-21 -17 -29 -9 -30 30 -1 37 9 46 31 27 14 -11 16 -11 11 2 -7 22 -45 24 -55
3z"/>
<path d="M2276 296 c-19 -46 -19 -46 -5 -46 14 0 39 26 32 34 -3 3 -12 -2 -20
-12 -11 -15 -12 -13 -2 10 11 25 13 26 24 11 7 -10 11 -23 8 -30 -3 -8 2 -13
13 -12 11 0 14 3 7 5 -7 3 -10 11 -7 18 3 7 -4 23 -14 37 l-20 24 -16 -39z"/>
<path d="M2360 290 c0 -52 15 -52 18 0 2 23 -2 40 -8 40 -5 0 -10 -18 -10 -40z"/>
<path d="M2482 316 c14 -10 14 -15 2 -39 -13 -24 -13 -27 1 -27 9 0 14 4 11 8
-3 5 1 9 9 9 8 0 12 -4 9 -9 -3 -4 2 -8 11 -8 13 0 14 4 5 20 -7 14 -8 26 -1
39 10 17 7 19 -26 19 -31 0 -35 -2 -21 -12z"/>
<path d="M2600 300 c0 -28 3 -30 38 -31 l37 -2 -35 -7 -35 -7 38 -2 c27 -1 37
3 37 14 0 11 -11 15 -37 16 -21 0 -32 3 -25 6 17 7 15 43 -3 43 -10 0 -15 -10
-15 -30z"/>
<path d="M2706 296 c-19 -47 -19 -46 -2 -46 7 0 16 9 19 20 3 11 10 20 15 20
6 0 8 -9 5 -20 -4 -15 -1 -20 13 -19 11 0 14 3 7 5 -7 3 -10 11 -7 18 3 7 -4
23 -14 37 l-20 24 -16 -39z"/>
<path d="M2780 320 c0 -5 5 -10 10 -10 6 0 10 5 10 10 0 6 -4 10 -10 10 -5 0
-10 -4 -10 -10z"/>
<path d="M2835 319 c5 -7 10 -23 11 -36 2 -19 -2 -23 -27 -23 -16 0 -29 4 -29
9 0 5 10 7 23 4 18 -4 19 -3 7 6 -24 17 -40 13 -40 -10 0 -17 5 -20 38 -17 35
3 37 5 37 37 0 20 -6 36 -14 39 -9 3 -11 0 -6 -9z"/>
<path d="M2870 310 c0 -11 4 -20 8 -20 4 0 8 9 8 20 0 11 -4 20 -8 20 -4 0 -8
-9 -8 -20z"/>
<path d="M2930 320 c0 -5 5 -10 11 -10 5 0 7 5 4 10 -3 6 -8 10 -11 10 -2 0
-4 -4 -4 -10z"/>
<path d="M2428 313 c15 -6 16 -43 0 -43 -6 0 -8 -3 -5 -6 4 -4 13 -2 20 4 8 7
17 9 20 5 4 -3 7 4 7 16 0 12 -4 20 -9 16 -5 -3 -12 -1 -16 5 -3 5 -12 10 -18
9 -9 0 -9 -2 1 -6z"/>
<path d="M2900 279 c-12 -9 -11 -10 8 -6 12 3 22 1 22 -4 0 -14 -48 -11 -53 4
-3 7 -6 4 -6 -6 -1 -15 6 -18 37 -15 25 2 37 8 37 18 0 18 -25 24 -45 9z"/>
</g>
</svg>
