<svg height="512" viewBox="0 0 64 64" width="512" xmlns="http://www.w3.org/2000/svg"><g id="card-importance-peronna-profie-detailsl"><path d="m3 20v34h58v-34zm26 30h-4v-6a4 4 0 0 0 -4-4h-6a4 4 0 0 0 -4 4v6h-4v-26h22z" fill="#bddbff"/><path d="m18 28a5.99 5.99 0 0 0 -5.91 5h5.37a7.925 7.925 0 0 0 2.97-.57l2.91-1.17a6.024 6.024 0 0 0 -5.34-3.26z" fill="#bddbff"/><g fill="#57a4ff"><path d="m61 13h-58a1 1 0 0 0 -1 1v40a1 1 0 0 0 1 1h58a1 1 0 0 0 1-1v-40a1 1 0 0 0 -1-1zm-1 40h-56v-32h56zm0-34h-56v-4h56z"/><path d="m29 23h-22a1 1 0 0 0 -1 1v26a1 1 0 0 0 1 1h22a1 1 0 0 0 1-1v-26a1 1 0 0 0 -1-1zm-5 26h-12v-5a3.009 3.009 0 0 1 3-3h6a3.009 3.009 0 0 1 3 3zm-6.54-15a8.98 8.98 0 0 0 3.34-.64l1.97-.79a5.155 5.155 0 0 1 .23 1.43 5 5 0 0 1 -10 0zm-4.04-2a4.969 4.969 0 0 1 8.39-1.2l-1.75.7a6.915 6.915 0 0 1 -2.6.5zm14.58 17h-2v-5a5 5 0 0 0 -3.42-4.72 7 7 0 1 0 -9.16 0 5 5 0 0 0 -3.42 4.72v5h-2v-24h20z"/><path d="m32 24h8v2h-8z"/><path d="m42 24h16v2h-16z"/><path d="m32 30h8v2h-8z"/><path d="m42 30h16v2h-16z"/><path d="m32 36h26v2h-26z"/><path d="m32 42h26v2h-26z"/><path d="m32 48h26v2h-26z"/></g></g></svg>