<svg id="Capa_1" enable-background="new 0 0 512 512" height="512" viewBox="0 0 512 512" width="512" xmlns="http://www.w3.org/2000/svg" xmlns:xlink="http://www.w3.org/1999/xlink"><linearGradient id="SVGID_1_" gradientUnits="userSpaceOnUse" x1="256" x2="256" y1="496" y2="46"><stop offset="0" stop-color="#5558ff"/><stop offset="1" stop-color="#00c0ff"/></linearGradient><linearGradient id="SVGID_2_" gradientUnits="userSpaceOnUse" x1="256" x2="256" y1="436" y2="16"><stop offset="0" stop-color="#addcff"/><stop offset=".5028" stop-color="#eaf6ff"/><stop offset="1" stop-color="#eaf6ff"/></linearGradient><g><g><g><path d="m482 136v-90h-452v90c-16.569 0-30 13.432-30 30v315c0 8.284 6.716 15 15 15h482c8.284 0 15-6.716 15-15v-315c0-16.568-13.431-30-30-30z" fill="url(#SVGID_1_)"/></g></g><g><g><path d="m497 16h-482c-8.401 0-15 6.599-15 15v135h512v-135c0-8.401-6.599-15-15-15zm-331 90h-90c-8.401 0-15-6.601-15-15 0-8.401 6.599-15 15-15h90c8.401 0 15 6.599 15 15 0 8.399-6.599 15-15 15zm270 0h-180c-8.401 0-15-6.601-15-15 0-8.401 6.599-15 15-15h180c8.401 0 15 6.599 15 15 0 8.399-6.599 15-15 15zm-225 135c0-24.814-20.186-45-45-45s-45 20.186-45 45 20.186 45 45 45 45-20.186 45-45zm-120 120c0 8.291 6.709 15 15 15h120c8.291 0 15-6.709 15-15 0-41.353-33.633-75-75-75s-75 33.647-75 75zm315 45h-300c-8.291 0-15 6.709-15 15s6.709 15 15 15h300c8.291 0 15-6.709 15-15s-6.709-15-15-15zm0-180h-120c-8.291 0-15 6.709-15 15s6.709 15 15 15h120c8.291 0 15-6.709 15-15s-6.709-15-15-15zm0 60h-120c-8.291 0-15 6.709-15 15s6.709 15 15 15h120c8.291 0 15-6.709 15-15s-6.709-15-15-15zm0 60h-120c-8.291 0-15 6.709-15 15s6.709 15 15 15h120c8.291 0 15-6.709 15-15s-6.709-15-15-15z" fill="url(#SVGID_2_)"/></g></g></g></svg>