<svg height="512" viewBox="0 0 128 128" width="512" xmlns="http://www.w3.org/2000/svg"><rect fill="#e6e7e8" height="110.643" rx="5" width="97.063" x="17.469" y="10.679"/><rect fill="#d4fbff" height="108.643" rx="4" width="95.063" x="14.469" y="7.679"/><path d="m105.531 7.679h-3a4 4 0 0 1 4 4v100.642a4 4 0 0 1 -4 4h3a4 4 0 0 0 4-4v-100.642a4 4 0 0 0 -4-4z" fill="#fff"/><path d="m27.244 7.679v48.78a4 4 0 0 0 2.312 3.626l30.756 14.315a4 4 0 0 0 3.376 0l30.756-14.315a4 4 0 0 0 2.311-3.626v-48.78z" fill="#6dc9f7"/><path d="m41.34 30.077a1.376 1.376 0 0 0 -1.377 1.377v23.47h9v-24.847z" fill="#0089ef"/><path d="m82.66 30.077h-7.623v24.847h9v-23.47a1.376 1.376 0 0 0 -1.377-1.377z" fill="#0089ef"/><path d="m73.66 20.077h-23.32a1.376 1.376 0 0 0 -1.377 1.377v33.47h26.074v-33.47a1.376 1.376 0 0 0 -1.377-1.377z" fill="#fa759e"/><g fill="#ffd7e5"><path d="m64.2 44.766h-4.4a1.376 1.376 0 0 0 -1.377 1.377v8.781h7.158v-8.781a1.376 1.376 0 0 0 -1.381-1.377z"/><path d="m54.119 24.482h2.347a.826.826 0 0 1 .826.826v2.347a.826.826 0 0 1 -.826.826h-2.347a.826.826 0 0 1 -.826-.826v-2.346a.827.827 0 0 1 .826-.827z"/><path d="m60.826 24.482h2.347a.826.826 0 0 1 .826.826v2.347a.827.827 0 0 1 -.827.827h-2.346a.826.826 0 0 1 -.826-.827v-2.347a.826.826 0 0 1 .826-.826z"/><path d="m67.534 24.482h2.347a.826.826 0 0 1 .826.826v2.347a.826.826 0 0 1 -.826.826h-2.347a.826.826 0 0 1 -.826-.826v-2.346a.827.827 0 0 1 .826-.827z"/><path d="m54.119 30.721h2.347a.826.826 0 0 1 .826.826v2.347a.826.826 0 0 1 -.826.826h-2.347a.826.826 0 0 1 -.826-.826v-2.346a.827.827 0 0 1 .826-.827z"/><path d="m60.826 30.721h2.347a.826.826 0 0 1 .826.826v2.347a.827.827 0 0 1 -.827.827h-2.346a.826.826 0 0 1 -.826-.826v-2.347a.826.826 0 0 1 .826-.827z"/><path d="m67.534 30.721h2.347a.826.826 0 0 1 .826.826v2.347a.826.826 0 0 1 -.826.826h-2.347a.826.826 0 0 1 -.826-.826v-2.346a.827.827 0 0 1 .826-.827z"/><path d="m54.119 36.96h2.347a.826.826 0 0 1 .826.826v2.347a.827.827 0 0 1 -.827.827h-2.346a.826.826 0 0 1 -.826-.826v-2.347a.826.826 0 0 1 .826-.827z"/><path d="m60.827 36.96h2.347a.826.826 0 0 1 .826.826v2.347a.826.826 0 0 1 -.826.826h-2.348a.826.826 0 0 1 -.826-.825v-2.347a.827.827 0 0 1 .827-.827z"/><path d="m67.534 36.96h2.347a.826.826 0 0 1 .826.826v2.347a.827.827 0 0 1 -.827.827h-2.346a.826.826 0 0 1 -.826-.826v-2.347a.826.826 0 0 1 .826-.827z"/></g><path d="m47.375 115.321h-9.625a1 1 0 0 0 0 2h9.625a1 1 0 0 0 0-2z" fill="#3a2c60"/><path d="m105.531 6.679h-87.062a5.006 5.006 0 0 0 -5 5v100.642a5.006 5.006 0 0 0 5 5h14.406a1 1 0 0 0 0-2h-14.406a3 3 0 0 1 -3-3v-100.642a3 3 0 0 1 3-3h7.775v47.78a5.015 5.015 0 0 0 2.891 4.532l30.754 14.319a4.983 4.983 0 0 0 4.221 0l30.755-14.319a5.015 5.015 0 0 0 2.891-4.532v-47.78h7.775a3 3 0 0 1 3 3v100.642a3 3 0 0 1 -3 3h-53.281a1 1 0 0 0 0 2h53.281a5.006 5.006 0 0 0 5-5v-100.642a5.006 5.006 0 0 0 -5-5zm-9.775 49.78a3.012 3.012 0 0 1 -1.735 2.72l-30.755 14.321a2.992 2.992 0 0 1 -2.533 0l-30.754-14.321a3.012 3.012 0 0 1 -1.735-2.72v-47.78h67.512z" fill="#3a2c60"/><path d="m39.963 55.925h44.074a1 1 0 0 0 1-1v-23.471a2.38 2.38 0 0 0 -2.377-2.377h-6.623v-7.623a2.38 2.38 0 0 0 -2.377-2.377h-23.32a2.38 2.38 0 0 0 -2.377 2.377v7.623h-6.623a2.38 2.38 0 0 0 -2.377 2.377v23.471a1 1 0 0 0 1 1zm42.7-24.848a.377.377 0 0 1 .377.377v22.471h-7v-22.848zm-32.7-9.623a.377.377 0 0 1 .377-.377h23.32a.377.377 0 0 1 .377.377v32.471h-24.074zm-9 10a.377.377 0 0 1 .377-.377h6.623v22.848h-7z" fill="#3a2c60"/><path d="m27.244 86h69.512a1 1 0 0 0 0-2h-69.512a1 1 0 0 0 0 2z" fill="#3a2c60"/><path d="m27.244 96h69.512a1 1 0 0 0 0-2h-69.512a1 1 0 0 0 0 2z" fill="#3a2c60"/><path d="m27.244 106h69.512a1 1 0 0 0 0-2h-69.512a1 1 0 0 0 0 2z" fill="#3a2c60"/></svg>