<svg id="Capa_1" enable-background="new 0 0 512 512" height="512" viewBox="0 0 512 512" width="512" xmlns="http://www.w3.org/2000/svg" xmlns:xlink="http://www.w3.org/1999/xlink"><linearGradient id="SVGID_1_" gradientUnits="userSpaceOnUse" x1="256" x2="256" y1="512" y2="0"><stop offset="0" stop-color="#addcff"/><stop offset=".5028" stop-color="#eaf6ff"/><stop offset="1" stop-color="#eaf6ff"/></linearGradient><linearGradient id="SVGID_2_" gradientUnits="userSpaceOnUse" x1="256" x2="256" y1="389.5" y2="122.5"><stop offset="0" stop-color="#00c0ff"/><stop offset="1" stop-color="#5558ff"/></linearGradient><g><g><circle cx="256" cy="256" fill="url(#SVGID_1_)" r="256"/></g><g><g><path d="m398.118 158.1h-97.706v19.321c10.34 3.677 17.765 13.576 17.765 25.179 0 14.723-11.953 26.7-26.647 26.7h-71.059c-14.694 0-26.647-11.977-26.647-26.7 0-11.603 7.425-21.503 17.765-25.179v-19.321h-97.706c-4.975 0-8.882 3.915-8.882 8.9v213.6c0 4.985 3.908 8.9 8.882 8.9h284.235c4.975 0 8.882-3.915 8.882-8.9v-213.6c0-4.985-3.908-8.9-8.882-8.9zm-159.883 195.8h-88.824c-4.909 0-8.882-3.981-8.882-8.9 0-24.536 19.925-44.5 44.412-44.5h8.882c-19.595 0-35.529-15.966-35.529-35.6s15.934-35.6 35.529-35.6 35.53 15.966 35.53 35.6-15.935 35.6-35.53 35.6h8.882c24.487 0 44.412 19.964 44.412 44.5.001 4.919-3.972 8.9-8.882 8.9zm106.588-17.8h-53.294c-4.909 0-8.882-3.981-8.882-8.9s3.973-8.9 8.882-8.9h53.294c4.91 0 8.882 3.981 8.882 8.9.001 4.919-3.972 8.9-8.882 8.9zm17.765-35.6h-88.824c-4.91 0-8.882-3.981-8.882-8.9s3.973-8.9 8.882-8.9h88.824c4.909 0 8.882 3.981 8.882 8.9.001 4.919-3.972 8.9-8.882 8.9zm0-35.6h-88.824c-4.91 0-8.882-3.981-8.882-8.9s3.973-8.9 8.882-8.9h88.824c4.909 0 8.882 3.981 8.882 8.9.001 4.919-3.972 8.9-8.882 8.9zm-142.117-53.4h71.059c4.975 0 8.882-3.915 8.882-8.9 0-4.984-3.908-8.9-8.882-8.9h-8.882v-62.3c0-4.984-3.908-8.9-8.882-8.9h-35.529c-4.975 0-8.882 3.915-8.882 8.9v62.3h-8.882c-4.975 0-8.882 3.915-8.882 8.9-.003 4.985 3.905 8.9 8.88 8.9z" fill="url(#SVGID_2_)"/></g></g></g></svg>