<?xml version="1.0" encoding="utf-8"?>
<!-- Generator: Adobe Illustrator 23.0.3, SVG Export Plug-In . SVG Version: 6.00 Build 0)  -->
<svg version="1.1" xmlns="http://www.w3.org/2000/svg" xmlns:xlink="http://www.w3.org/1999/xlink" x="0px" y="0px"
	 viewBox="0 0 1600 1200" style="enable-background:new 0 0 1600 1200;" xml:space="preserve">
<style type="text/css">
	.st0{fill:#E8E8E8;}
	.st1{fill:none;stroke:#E8E8E8;stroke-miterlimit:10;}
	.st2{fill:#5222D0;}
	.st3{fill:#EC615B;}
	.st4{fill:#FFFFFF;stroke:#000000;stroke-width:4;stroke-miterlimit:10;}
	.st5{opacity:0.14;fill:#939393;}
	.st6{fill:#939393;}
	.st7{fill:#FFFFFF;}
	.st8{opacity:0.13;fill:#939393;}
	.st9{fill:#161616;}
	.st10{fill:none;stroke:#161616;stroke-width:2;stroke-miterlimit:10;}
	.st11{opacity:0.19;fill:#939393;}
	.st12{opacity:0.25;fill:#939393;}
	.st13{opacity:0.27;fill:#AAAAAA;}
</style>
<g id="background">
	<g>
		<g>
			<path class="st0" d="M984.8,191c7.3-13.1,24.7-4.8,33.3,1.9c8.8,6.8,17.1,14,28.7,14.8c20.3,1.5,38.3-13.5,55.7-21.5
				c10.8-5,22.3-8.1,34.1-5.2c12,2.9,22.4,9.7,34,13.7c10,3.4,20.2,3.6,29.6-1.6c12.7-7,21.8-18.3,37.8-15.8
				c15.3,2.4,27.7,12.9,42.7,16.3c10.8,2.4,22.9,1.7,30.5-7.2c1.2-1.5-0.9-3.6-2.1-2.1c-8.6,10.1-23,8.5-34.3,4.5
				c-12.9-4.5-24.2-13.1-38.1-14.7c-13.5-1.5-22.6,6-33,13.2c-5.4,3.7-11.2,6.7-17.9,7c-6.4,0.3-12.6-1.6-18.5-4
				c-11.3-4.5-22-11.2-34.2-13c-9.9-1.5-19.5,0.9-28.6,4.8c-18.8,8-39.1,26.3-60.9,22.3c-14.2-2.6-22.3-15.8-35.2-21
				c-9-3.6-21-3.2-26.2,6.1C981.3,191.1,983.9,192.7,984.8,191L984.8,191z"/>
		</g>
	</g>
	<g>
		<g>
			<path class="st0" d="M1132.9,157.2c9.3-19.5,35.2-10.6,49.9-4.5c8.9,3.7,18.2,7.3,28,6.9c8.1-0.3,15.8-2.9,23.1-6
				c16.9-7.3,34.2-19.2,53.5-14c17,4.7,31.8,18.8,50.5,14.8c10.8-2.3,19.8-9.4,30.3-12.4c13.9-3.9,27.3,2.3,39.6,8.3
				c1.7,0.8,3.3-1.7,1.5-2.6c-9.9-4.8-20.3-9.8-31.6-10c-10.2-0.1-19,4.8-27.9,9c-10.6,5.1-20.4,7-31.7,2.9
				c-9.3-3.3-17.7-8.9-27.1-12.1c-18.4-6.2-35,2.2-51.4,10.1c-8.9,4.2-18.2,8.4-28.2,8.9c-11.3,0.6-21.6-4.2-31.8-8.4
				c-15.4-6.3-40.3-11.5-49.4,7.5C1129.5,157.4,1132.1,159,1132.9,157.2L1132.9,157.2z"/>
		</g>
	</g>
	<g>
		<g>
			<path class="st0" d="M253.2,861.2c1.1-5.6,6.5-8.4,11.9-8.5c6.2-0.1,11.6,3.9,16.1,7.7c7.2,6.2,14.6,14.4,24.9,14.7
				c8.5,0.3,14.5-5.7,20.1-11.2c6.8-6.8,13.9-11.4,23.8-9.8c16.1,2.5,29.1,14.5,45.2,16.8c8,1.1,14.9-1.1,21.3-5.9
				c4.1-3.1,7.7-6.8,12.4-8.9c6.1-2.8,13-2.8,19.5-1.7c20.6,3.5,45.3,21,65.1,5.9c1.5-1.2,0-3.8-1.5-2.6
				c-19.5,14.8-44.5-3.7-64.9-6.5c-10.6-1.4-19.5,1-27.8,7.7c-4.2,3.4-8.3,7.1-13.6,8.7c-4.4,1.2-9,0.9-13.5-0.1
				c-15.6-3.7-28.8-15.6-45.2-16.5c-7.9-0.4-14.5,3-20.2,8.2c-8.7,8-16.5,17.4-29.3,10.6c-10.1-5.4-16.7-16.9-28.4-19.5
				c-7.7-1.7-17.2,1.9-18.9,10.3C250,862.3,252.9,863.1,253.2,861.2L253.2,861.2z"/>
		</g>
	</g>
	<g>
		<g>
			<path class="st0" d="M418.4,831.7c2.3-7.1,10.4-8.7,17-8c7.7,0.8,14.4,5.4,21.7,7.7c6.7,2.1,12.9,2,19.4-0.7
				c6.6-2.7,13.6-8.2,21.1-6.9c6.7,1.2,10.9,7.5,17.3,9.6c5.7,1.8,11.3-0.1,16.5-2.8c7.8-4,14.4-8.3,23.5-8.1
				c9.7,0.2,19,4.2,27.7,8.1c1.8,0.8,3.3-1.8,1.5-2.6c-8-3.5-16.1-7-24.8-8.1c-8.5-1.1-15.8,0.8-23.3,4.8c-8.6,4.6-16.3,9.3-25.4,3
				c-5.5-3.8-10.1-7.8-17.2-7c-7.5,0.8-13.6,5.9-20.6,8.2c-9.9,3.2-18.8-1.9-27.8-5.6c-9.8-3.9-25.6-4.9-29.6,7.6
				C414.9,832.7,417.8,833.5,418.4,831.7L418.4,831.7z"/>
		</g>
	</g>
	<g>
		<g>
			<path class="st0" d="M403.7,157.7c1.2,7.1,8,12.3,15.2,12.2c7.6-0.1,12.7-6.5,12.9-13.7c0.2-7.1-4.4-13.6-11.7-14.3
				c-7.3-0.7-14.6,4-16.3,11.3c-0.4,1.9,2.5,2.7,2.9,0.8c1.3-5.4,6.4-9.1,11.9-9.1c6.3,0,10.4,5.4,10.2,11.4
				c-0.5,13.9-20,13.6-22.2,0.8C406.3,155,403.4,155.8,403.7,157.7L403.7,157.7z"/>
		</g>
	</g>
	<circle class="st1" cx="402.3" cy="618.7" r="9"/>
	<circle class="st1" cx="671.5" cy="1064.8" r="30.6"/>
	<circle class="st1" cx="1304.3" cy="388.5" r="17.1"/>
	<g>
		<g>
			<path class="st0" d="M573.1,76.4c10.8-13.6,30.1-2.1,43.3,0c14,2.2,23.6-6.1,34.7-13.2c6.9-4.4,13.5-6.6,21.8-5.6
				c7.1,0.8,14.2,3,21.4,1.5c3.7-0.8,7.1-2.6,10.6-4c4.9-1.9,9.7-2.5,14.9-1.5c8.9,1.7,16.9,6.8,24.3,11.8c1.6,1.1,3.1-1.5,1.5-2.6
				c-7.4-4.9-15.3-10-24.2-11.9c-7.6-1.7-14-0.1-21,2.9c-9.5,4.1-17.5,1.9-27.3,0.8c-7.2-0.8-13.6,0.4-19.9,3.9
				c-6.3,3.5-11.8,8.2-18.2,11.7c-8.6,4.6-17.1,4-26.3,1.3c-12-3.5-28.2-9-37.7,2.8C569.8,75.8,571.9,77.9,573.1,76.4L573.1,76.4z"
				/>
		</g>
	</g>
	<g>
		<g>
			<path class="st0" d="M650.1,108.1c8.5-15.4,27.9-17,43.5-14.2c8.6,1.5,17,4.3,25.6,5.9c6.5,1.2,11.7,0.5,17-3.5
				c6.5-5,11.8-9.1,20.4-9.1c7.9,0,15.6,2.6,22.8,5.5c14,5.7,29.2,13.5,44.3,7.3c1.8-0.7,1-3.6-0.8-2.9
				c-17.4,7.1-34.2-4.9-50.3-10.1c-6.7-2.1-13.9-3.6-20.9-2.5c-7.7,1.2-12.1,5.7-18.1,10c-8.3,5.9-19.2,1.1-28.1-1.1
				c-8.5-2.1-17.2-4-26-3.8c-12.6,0.3-25.6,5.5-32,17C646.6,108.3,649.2,109.8,650.1,108.1L650.1,108.1z"/>
		</g>
	</g>
	<circle class="st1" cx="324.1" cy="1001.9" r="19.4"/>
	<circle class="st2" cx="378.8" cy="664.7" r="9.6"/>
	<circle class="st2" cx="1257.7" cy="855.9" r="6.6"/>
	<circle class="st2" cx="948.9" cy="86.9" r="11.5"/>
	<circle class="st3" cx="466.3" cy="731.7" r="13.6"/>
	<circle class="st3" cx="1188" cy="309.7" r="11.9"/>
	<circle class="st3" cx="466.3" cy="1024.4" r="13.6"/>
	<g>
		<g>
			<path class="st0" d="M1050.8,975.5c3-6.2,10.4-9.5,17.1-7.5c5.8,1.7,8.2,8,13.5,10.5c9.4,4.5,15.1-7.2,21.8-11.3
				c10.3-6.3,18.3,9.1,28.9,6.7c6.2-1.4,9.4-8,15.7-9.8c3.4-1,7.1-0.9,10.5,0.1c3.8,1.2,6.8,4,10.4,5.5c2.4,1.1,4.9,1.6,7.4,0.7
				c3.5-1.2,5.5-4.6,9.1-5.8c8.4-2.7,17.8,3,24.6,7.4c1.6,1.1,3.1-1.5,1.5-2.6c-5.7-3.7-11.9-7.2-18.7-8.2c-2.7-0.4-5.6-0.4-8.2,0.5
				c-3.4,1-5.2,3.9-8.2,5.2c-5.3,2.3-9.2-1.9-13.5-4.1c-2.6-1.3-5.3-2.2-8.3-2.4c-6-0.5-11.6,1.6-16.2,5.6
				c-3.2,2.8-5.8,5.8-10.5,4.8c-3.1-0.6-5.9-2.7-8.6-4.3c-4.1-2.4-8.8-4.9-13.7-3.6c-4.8,1.3-8.1,5.3-11.5,8.6c-2,2-4.3,4.3-7.2,4.8
				c-4.3,0.8-7.1-2.8-9.7-5.6c-8.2-8.7-23-8.3-28.7,3.3C1047.4,975.7,1050,977.2,1050.8,975.5L1050.8,975.5z"/>
		</g>
	</g>
	<g>
		<g>
			<path class="st0" d="M1147,954.6c2-5,6.4-8.6,11.7-9.7c5.8-1.3,10.5,1.5,15.6,4c3.3,1.7,7,3.4,10.8,3c4.3-0.5,6.7-3.8,10-6.2
				c4.6-3.5,11.1-4,16.2-1.1c2.8,1.6,5,5,8.7,4.1c1.6-0.4,2.8-1.6,4.2-2.3c3.3-1.6,6.9-1.5,10.4-0.6c5.6,1.4,10.7,4.8,15.3,8.1
				c1.6,1.1,3.1-1.5,1.5-2.6c-7.8-5.6-19-12.5-28.7-7.5c-1.8,0.9-2.9,2.5-5.4,1.6c-1.1-0.4-2.3-2-3.3-2.6c-1.8-1.2-3.8-2.1-5.9-2.5
				c-4.1-0.9-8.6-0.5-12.3,1.5c-5.8,3.1-8.5,9.1-16.1,6.4c-5.3-1.9-9.8-5.8-15.6-6.4c-8.6-1-16.7,4.3-19.9,12.1
				C1143.4,955.6,1146.3,956.4,1147,954.6L1147,954.6z"/>
		</g>
	</g>
	<g>
		<g>
			<path class="st0" d="M1166,747.6c3.8-6,12.8-7,17.6-1.8c2.5,2.7,4.3,7,8.7,6.7c2.9-0.2,5-2.4,7.2-4c3.4-2.5,7.2-5.2,11.6-4.6
				c4.8,0.7,8.7,6,13.9,4c2.7-1,4.5-3.6,6.9-5.1c2.6-1.7,5.6-2.8,8.6-3.4c7.2-1.5,13.9,0.1,20.1,3.8c5.2,3.2,6.9-0.6,11.5-3
				c6.9-3.6,15.6-2.2,21.2,2.9c1.4,1.3,3.6-0.8,2.1-2.1c-4.5-4-10.2-6.1-16.2-5.7c-2.6,0.2-5.1,0.7-7.4,1.8
				c-4.1,1.8-5.8,4.9-10.9,2.8c-6.2-2.5-11.2-4.6-18.1-3.9c-5.5,0.6-10.7,2.6-15,6.1c-2.6,2-4.7,3.8-8.6,2.2
				c-1.6-0.6-2.9-1.8-4.4-2.4c-2.2-1-4.4-1.3-6.9-1c-3.5,0.5-6.6,2.5-9.4,4.5c-1.4,1-2.9,2.7-4.5,3.3c-4.3,1.7-5.2-1.1-7.4-3.7
				c-6.2-7.5-18-7.5-23.4,1.1C1162.4,747.7,1165,749.2,1166,747.6L1166,747.6z"/>
		</g>
	</g>
	<g>
		<g>
			<path class="st0" d="M1261.1,724.5c2.3-3.9,6.5-6.1,11-6c5.2,0.2,6.7,4,10.9,5.8c2.1,0.9,3.9,0.5,5.6-0.9c4.3-3.3,7.2-6.1,13-6
				c2.5,0,4.9,0.7,7.1,1.9c1.5,0.8,2.7,2.1,4.3,2.5c2.9,0.7,4.8-1.1,6.9-2.8c8.3-6.4,20.1-6,27.7,1.3c1.4,1.3,3.5-0.8,2.1-2.1
				c-6.3-5.9-15.3-8.2-23.6-5.8c-2.1,0.6-4.1,1.5-5.9,2.6c-2.5,1.6-4.5,4.5-7.9,3.2c-2-0.8-3.6-2.3-5.7-3c-2.1-0.7-4.3-0.9-6.5-0.8
				c-3.8,0.2-7.6,1.5-10.6,3.9c-0.8,0.6-1.5,1.7-2.4,2.2c-3.5,2.2-3.9,0.4-6.1-1.4c-1.1-0.9-2.2-1.7-3.6-2.3
				c-6.9-3.1-15.4-0.2-19.1,6.3C1257.5,724.6,1260.1,726.2,1261.1,724.5L1261.1,724.5z"/>
		</g>
	</g>
</g>
<g id="maginifier">
	<path class="st4" d="M529.7,738.4c-23.6,23.2-47.6,49.2-71.5,78.1c-70.6,85.5-117.8,171.1-149.9,243.7c1.9,4.9,9.8,23.7,30.7,34.6
		c25.5,13.3,50.3,4.2,54.1,2.7c26.9-53,63.8-114.4,114.2-177.5c29.5-37,59.2-68.9,87.4-96.2C573.1,795.4,551.4,766.9,529.7,738.4z"
		/>
	<path class="st5" d="M569.6,797.3c-15,14.5-30.1,29.7-45.1,45.8c-79.2,85-137.4,172.9-180.5,254c5.2,2.1,14,4.8,25.2,4.8
		c10.5,0,18.9-2.5,24-4.4c17.3-37.5,40.2-80.1,70.8-124.6c44.1-64.2,91-113.2,130.8-149.1C586.3,815.1,578,806.2,569.6,797.3z"/>
	<path class="st6" d="M211.4,687.4"/>
	<circle class="st4" cx="825.6" cy="581.4" r="334.9"/>
	<circle class="st4" cx="821.9" cy="583.6" r="311.9"/>
</g>
<g id="character">
	<g id="hand_irght">
		<path class="st7" d="M466.6,453.2c-4,1.6-13.1,5.7-20.5,15.3c-6.6,8.5-8.6,17.1-9.3,21.4c14.7,11.5,27.6,20.3,37.4,26.6
			c29,18.8,44.5,24.8,48.7,26.4c18.8,7.1,30,8,33.2,8.2c7.1,0.4,18.5,1.1,31.4-3.3c9.9-3.4,16.7-8.4,34.4-24.7
			c21-19.3,32.1-30.8,32.1-30.8c43.4-45,43.1-40.1,57.9-58.4c16.5-20.5,40.6-50.3,31.5-65.4c-4.6-7.6-16.8-10-36.9-13.9
			c-13.5-2.6-18.8-1.5-20.5-1.1c-11.6,2.8-18.6,11.6-24.9,19.9c-21.1,27.5-31.6,41.2-38.7,52.1c-5.5,8.4-14.9,22.9-29.1,41.2
			c-9.5,12.3-14.6,17.8-23,20.6c-9.1,3-17,1.2-32.1-2.4c-5.5-1.3-16-4.1-33.9-12.1C494.5,468.4,481.5,462,466.6,453.2z"/>
		<path class="st8" d="M707.4,381.4c-4.6,6.4-11.3,15.8-19.5,27.1c-18.8,25.8-28.9,39.7-42.3,56c-20.5,25-30.7,37.6-45.2,47.3
			c-11.1,7.5-26.2,17.7-47.3,19.9c-18.8,1.9-34.1-4.1-63.9-16.3c-13.1-5.3-31.3-13.5-52.3-25.6c7.9,6.3,19.5,14.9,34,24.4
			c28.7,18.7,46.5,30.1,72.4,34.9c11.9,2.2,30.5,5.4,49.5-3.4c5.8-2.7,10.6-6.6,20-14.4c24.4-20.2,41.1-38.7,47.1-45.4
			c15.4-17.4,23.1-26.1,28.6-35.5C695.9,438,706.3,415.4,707.4,381.4z"/>
		<g>
			<g>
				<path class="st9" d="M685.6,352.1c-15.8,4.5-26.5,18.4-36,30.9c-11,14.4-20.5,29.8-30.4,45c-9.9,15.2-20.1,30.4-32.3,43.9
					c-7.1,7.8-13.8,16-25.3,15c-10.1-0.8-20.5-2.2-30.3-5c-10.9-3.1-20.9-8.4-31-13.5c-11-5.5-22-11.1-33-16.6
					c-1.7-0.9-3.2,1.7-1.5,2.6c18.5,9.3,36.9,20,56.3,27.5c8.9,3.5,18.2,5.3,27.7,6.5c9,1.2,18.7,3.5,26.6-2.2
					c6.9-4.9,12.7-12.1,18.1-18.6c5.6-6.7,10.8-13.7,15.7-20.9c10.5-15.1,20-30.9,30.3-46.1c6.2-9.1,12.6-18,19.8-26.4
					c7.2-8.4,15.2-16.3,26.1-19.4C688.3,354.4,687.5,351.5,685.6,352.1L685.6,352.1z"/>
			</g>
		</g>
		<g>
			<g>
				<path class="st9" d="M436.1,491.1c20.9,14.9,41.5,31.6,64.4,43.5c19.6,10.3,42.6,18.4,65,18.6c11.1,0.1,21.6-2.5,31-8.4
					c9.4-5.9,17.9-13.3,26.3-20.5c17.1-14.7,32.9-30.8,47.4-48c16.4-19.5,31-40.5,43.6-62.6c1-1.7-1.6-3.2-2.6-1.5
					c-21.6,37.8-49,72.2-81.1,101.6c-7.9,7.2-16.1,14.1-24.5,20.7c-10,7.8-20.3,14.2-33.2,15.4c-22.7,2.1-47.3-6.3-67.3-16.3
					c-24.2-12-45.7-29.5-67.5-45.2C436.1,487.4,434.6,490,436.1,491.1L436.1,491.1z"/>
			</g>
		</g>
	</g>
	<g id="paper">
		<path class="st7" d="M130.8,273.3c3.5,10.8,8.5,25.6,14.9,42.9c21.9,58.9,46.3,108.9,68.6,149c31,55.9,64,103.5,95.2,143.2
			c5.5-2.1,13.6-5.7,22.4-11.6c10.2-6.9,16.4-13.6,24.3-22c10.3-10.9,21.2-21.3,31.5-32.3c45.3-48.5,42.1-44.3,49.2-52.6
			c10-11.7,23.8-28.8,38.9-51c-5.8-4.6-13.8-11.4-22.6-20.2c-13-13-23.9-26.5-37.6-47c-5.6-8.4-17.5-26.5-39.3-66.9
			c-34.7-64.5-41.3-86.6-44-96.4c-4.3-15.7-6.5-29-7.8-38.3c-24,10.2-48.8,21.7-74.4,34.6C205.9,227,166.1,250.3,130.8,273.3z"/>
		<g>
			<g>
				<path class="st9" d="M129.3,273.7c30.8,95,74.7,185.6,130.3,268.6c15.4,23,31.7,45.4,48.8,67.2c1.2,1.5,3.3-0.6,2.1-2.1
					c-61.4-78.2-112-164.9-149.8-256.8c-10.5-25.5-20-51.4-28.5-77.6C131.6,271,128.7,271.8,129.3,273.7L129.3,273.7z"/>
			</g>
		</g>
		<g>
			<g>
				<path class="st9" d="M131.3,272.6c61.6-38.2,126.1-71.8,192.7-100.4c1.8-0.8,0.2-3.3-1.5-2.6c-66.6,28.6-131.1,62.2-192.7,100.4
					C128.1,271,129.6,273.6,131.3,272.6L131.3,272.6z"/>
			</g>
		</g>
		<g>
			<g>
				<path class="st9" d="M323,170.1c4.3,42,23,80.2,42.3,117.1c18.5,35.3,37.3,70.8,61.4,102.7c13.1,17.4,27.9,33.6,44.6,47.7
					c1.5,1.2,3.6-0.9,2.1-2.1c-29.9-25.2-53-57-72.8-90.4c-9.8-16.4-18.8-33.2-27.7-50.1c-9.5-18.1-19.1-36.1-27.2-54.9
					c-9.6-22.3-17.1-45.7-19.6-70C325.8,168.2,322.8,168.2,323,170.1L323,170.1z"/>
			</g>
		</g>
		<g>
			<g>
				<path class="st9" d="M311.2,608.7c13.3-3.6,24.2-12,34.1-21.3c11.5-10.8,22.6-22.1,33.5-33.5c22.6-23.4,44.3-47.7,65.1-72.7
					c11.4-13.7,22.5-27.6,33.3-41.7c0.4-0.5,0.2-1.4-0.2-1.8c-1.1-1.1-2.2-2.2-3.2-3.3c-1.4-1.4-3.5,0.7-2.1,2.1
					c1.1,1.1,2.2,2.2,3.2,3.3c-0.1-0.6-0.2-1.2-0.2-1.8c-24.4,31.8-50.3,62.6-77.5,92.1c-13.4,14.6-27.2,28.9-41.3,42.8
					c-13.2,13.1-26.8,27.7-45.4,32.8C308.5,606.3,309.3,609.2,311.2,608.7L311.2,608.7z"/>
			</g>
		</g>
		
			<ellipse transform="matrix(0.9176 -0.3975 0.3975 0.9176 -110.8048 105.4942)" class="st10" cx="199" cy="320" rx="32.4" ry="40.8"/>
		<g>
			<g>
				<path class="st9" d="M181.9,309.9c3,5.7,10.4,16.8,18.4,12.3c7.5-4.3,1.7-17.4-1.9-22.4c-1.1-1.6-3.7-0.1-2.6,1.5
					c2.4,3.3,8.9,15.9,2.3,18.6c-5.8,2.4-11.5-7.6-13.6-11.5C183.6,306.7,181,308.2,181.9,309.9L181.9,309.9z"/>
			</g>
		</g>
		<g>
			<g>
				<path class="st9" d="M196.4,323.8c1.3,1.4-5.2,7.2-6,8.3c-1.5,2.1-2.3,4.5-2.7,7c-0.7,5.6,1.4,11,3.5,16.2
					c0.7,1.8,3.6,1,2.9-0.8c-3.4-8.4-5.5-15.9,1.1-23.2c2.4-2.6,6.5-6.1,3.3-9.6C197.2,320.3,195.1,322.4,196.4,323.8L196.4,323.8z"
					/>
			</g>
		</g>
		<g>
			<g>
				<path class="st9" d="M202.8,318.6c2.6,2.3,5.1,3.9,8.7,3.3c2.8-0.4,5.3-1.9,8.1-1.5c3.8,0.5,6.4,3.9,8.7,6.7
					c1.2,1.5,3.3-0.6,2.1-2.1c-2.7-3.3-5.7-6.8-10.2-7.6c-5.9-1-9.9,3.9-15.3-0.9C203.5,315.2,201.4,317.3,202.8,318.6L202.8,318.6z
					"/>
			</g>
		</g>
		<g>
			<g>
				<path class="st9" d="M197.8,326.6c4.3,2.5,7.9-1.6,9.5-5.2c0.8-1.7-1.8-3.3-2.6-1.5c-0.9,1.9-2.8,5.7-5.4,4.1
					C197.6,323,196.1,325.6,197.8,326.6L197.8,326.6z"/>
			</g>
		</g>
		<g>
			<g>
				<path class="st9" d="M190.4,337.3c6.1,3.7,8.9,13.9,10.4,20.4c0.4,1.9,3.3,1.1,2.9-0.8c-1.7-7.4-4.8-18-11.8-22.2
					C190.3,333.7,188.7,336.3,190.4,337.3L190.4,337.3z"/>
			</g>
		</g>
		<g>
			<g>
				<path class="st9" d="M216.6,319.5c2.6,7.4,6.8,13.9,12.5,19.3c1.4,1.3,3.5-0.8,2.1-2.1c-5.4-5-9.4-11-11.8-18
					C218.9,316.9,216,317.7,216.6,319.5L216.6,319.5z"/>
			</g>
		</g>
		<g>
			<g>
				<path class="st9" d="M183.2,300c2.2,0.8,4.4,1.4,6.7,1.6c3,0.3,6.3-0.6,8.8,1.7c1.7,1.6,3,4.7,4.3,6.7c1.8,2.8,3.6,5.6,5.4,8.4
					c1,1.6,3.6,0.1,2.6-1.5c-2.1-3.3-4.3-6.7-6.4-10c-1.4-2.1-2.6-5-4.5-6.7c-1.5-1.3-3.2-1.4-5.1-1.4c-3.9-0.1-7.2-0.2-10.9-1.6
					C182.2,296.4,181.4,299.3,183.2,300L183.2,300z"/>
			</g>
		</g>
		<g>
			<g>
				<path class="st9" d="M181.7,297.5c-0.6,3.6-0.8,7.2-0.6,10.9c0.1,1.9,3.1,1.9,3,0c-0.2-3.4-0.1-6.7,0.5-10.1
					C184.9,296.4,182,295.6,181.7,297.5L181.7,297.5z"/>
			</g>
		</g>
		<g>
			<g>
				<path class="st9" d="M190.1,333.8c-7.1-10.3-24.3-34.8-5.7-42.8c15.3-6.6,27.9,16.9,33,27.9c0.8,1.8,3.4,0.2,2.6-1.5
					c-5.8-12.7-20.1-37.4-37.5-28.8c-19.8,9.7-3.1,34.9,5.1,46.7C188.6,336.9,191.2,335.4,190.1,333.8L190.1,333.8z"/>
			</g>
		</g>
		<g>
			<g>
				<path class="st9" d="M231.4,275.9c11.4-5.8,22.8-11.6,34.2-17.4c1.7-0.9,0.2-3.5-1.5-2.6c-11.4,5.8-22.8,11.6-34.2,17.4
					C228.1,274.2,229.6,276.8,231.4,275.9L231.4,275.9z"/>
			</g>
		</g>
		<g>
			<g>
				<path class="st9" d="M234,291.5c26.7-13.5,53-27.7,78.9-42.5c1.7-1,0.2-3.6-1.5-2.6c-25.9,14.9-52.2,29-78.9,42.5
					C230.8,289.7,232.3,292.3,234,291.5L234,291.5z"/>
			</g>
		</g>
		<g>
			<g>
				<path class="st9" d="M244.2,307.7c13.2-6.2,26.3-12.4,38.6-20.2c1.6-1,0.1-3.6-1.5-2.6c-12.3,7.8-25.4,14.1-38.6,20.2
					C241,305.9,242.5,308.5,244.2,307.7L244.2,307.7z"/>
			</g>
		</g>
		<g>
			<g>
				<path class="st9" d="M250.7,325.5c23.5-12.1,46.8-24.8,69.7-37.9c1.7-1,0.2-3.6-1.5-2.6c-23,13.2-46.2,25.8-69.7,37.9
					C247.5,323.8,249,326.4,250.7,325.5L250.7,325.5z"/>
			</g>
		</g>
		<g>
			<g>
				<path class="st9" d="M213.5,416.2c40.7-23.3,81.5-46.4,122.5-69.2c1.7-0.9,0.2-3.5-1.5-2.6c-41,22.8-81.8,45.9-122.5,69.2
					C210.3,414.6,211.9,417.2,213.5,416.2L213.5,416.2z"/>
			</g>
		</g>
		<g>
			<g>
				<path class="st9" d="M223.1,436.9c17.8-12,36.2-23.2,55.1-33.4c1.7-0.9,0.2-3.5-1.5-2.6c-18.9,10.3-37.3,21.4-55.1,33.4
					C220,435.4,221.5,438,223.1,436.9L223.1,436.9z"/>
			</g>
		</g>
		<g>
			<g>
				<path class="st9" d="M244.4,457.7c29.5-20.6,59.7-40.2,90.6-58.7c1.7-1,0.1-3.6-1.5-2.6c-30.8,18.5-61,38.1-90.6,58.7
					C241.3,456.2,242.8,458.8,244.4,457.7L244.4,457.7z"/>
			</g>
		</g>
		<g>
			<g>
				<path class="st9" d="M259,485.9c28.9-21,58.4-41.1,88.5-60.3c1.6-1,0.1-3.6-1.5-2.6c-30.1,19.2-59.6,39.3-88.5,60.3
					C255.9,484.4,257.4,487,259,485.9L259,485.9z"/>
			</g>
		</g>
		<g>
			<g>
				<path class="st9" d="M278.3,526.4c36.7-27.7,73.3-55.3,110-83c1.5-1.1,0-3.8-1.5-2.6c-36.7,27.7-73.3,55.3-110,83
					C275.2,525,276.7,527.6,278.3,526.4L278.3,526.4z"/>
			</g>
		</g>
		<g>
			<g>
				<path class="st9" d="M305.8,544.8c25.1-21.2,50.9-41.5,77.4-61c1.5-1.1,0-3.7-1.5-2.6c-26.7,19.6-52.7,40.1-78,61.4
					C302.2,544,304.3,546.1,305.8,544.8L305.8,544.8z"/>
			</g>
		</g>
	</g>
	<g id="finger">
		<path class="st7" d="M402.6,347.5c0.9-1.5,2.1-3.7,3.2-6.5c0.9-2.4,1.9-6.3,1.7-18.8c-0.2-12-1.5-16.4-3-19.7
			c-2.2-5.2-4.1-6-4.9-6.3c-3.4-1.2-7.1,1.5-12.9,5.9c-11.4,8.7-14.9,16.3-16.1,19.5c-1.2,3.1-2.1,5.4-1,6.8c2.3,3,11.7-0.5,19.4-4
			C393.6,332.2,398.1,339.8,402.6,347.5z"/>
		<g>
			<g>
				<path class="st9" d="M406.3,345.4c3.4-13.6,4.1-28.9-0.1-42.5c-1.2-3.9-3.7-8.2-8.2-8.6c-5.1-0.5-10.1,5-13.7,8
					c-4.6,3.8-9,8.1-12.2,13.2c-2,3.2-5.7,9.4-3.9,13.4c4,9.1,22.4-4,26.6-6.9c1.6-1.1,0.1-3.7-1.5-2.6c-3.5,2.5-7.2,4.7-11.1,6.5
					c-2,1-4.2,2-6.4,2.6c-5.4,1.3-4.6-4.4-3.2-7.5c3.1-6.9,8.7-12.4,14.5-17.1c3.8-3.1,11.2-10.2,15.1-3c2.3,4.1,2.9,10.3,3.4,15
					c1,9.7,0.2,19.4-2.2,28.8C402.9,346.5,405.8,347.3,406.3,345.4L406.3,345.4z"/>
			</g>
		</g>
	</g>
	<g id="legs">
		<path class="st7" d="M784.8,696.3c-0.3,1.4,0.1-0.1-1.3,23.1c-2.5,43.2-5.3,76.5-7.7,105.8c-1,11.8-2.4,28.1-4.2,47.5
			c33.8,8.9,75,14.1,120.4,7.6c5.7-0.8,11.2-1.8,16.6-2.9c-0.2-21-0.5-42-0.7-63c10,18.3,20.1,36.6,30.1,54.9
			c14.9-4.5,35.3-12.4,57-26.8c23.5-15.6,39.5-33,49.5-45.7c-18.5-34.8-29.7-64.3-36.6-85.5c-9.3-28.5-16.4-59.2-42.1-91.5
			c-7.1-8.9-10.6-13.3-15.4-16.4C904.6,574,797.6,629.1,784.8,696.3z"/>
		<path class="st11" d="M937.1,623.8c3.3,10.1,6.7,20.3,10,30.5c20.6,63.6,39.5,126.6,56.8,188.7c7.5-5.8,16.4-13.7,25.1-24.1
			c6.5-7.8,11.5-15.4,15.4-22.1c-6.7-13.9-15.9-33.8-26.1-58.2c-13.7-32.7-27.2-66.7-27.2-66.7c-14.8-35.4-19.8-45.8-28.9-58.9
			c-6.1-8.7-11.7-15.3-15.7-19.7C943.4,603.5,940.3,613.6,937.1,623.8z"/>
		<g>
			<g>
				<path class="st9" d="M783.3,696.3c-3.1,57.9-7.5,115.7-13.2,173.4c-0.2,1.9,2.8,1.9,3,0c5.7-57.7,10.1-115.5,13.2-173.4
					C786.4,694.4,783.4,694.4,783.3,696.3L783.3,696.3z"/>
			</g>
		</g>
		<g>
			<g>
				<path class="st9" d="M959.1,610.4c28,62.4,56,124.7,84,187.1c0.8,1.8,3.4,0.2,2.6-1.5c-28-62.4-56-124.7-84-187.1
					C960.9,607.1,958.3,608.7,959.1,610.4L959.1,610.4z"/>
			</g>
		</g>
		<g>
			<g>
				<path class="st9" d="M850,746.8c13.5-0.3,23.4,9.6,30.1,20.3c6.5,10.4,12,21.6,17.9,32.4c12.5,23,25.1,46,37.6,69.1
					c0.9,1.7,3.5,0.2,2.6-1.5c-13.8-25.4-27.6-50.7-41.4-76.1c-10.1-18.5-21.4-47.7-46.8-47.1C848,743.8,848,746.8,850,746.8
					L850,746.8z"/>
			</g>
		</g>
		<g>
			<g>
				<path class="st9" d="M906.4,814.1c0.2,21.1,0.5,42.2,0.7,63.3c0,1.9,3,1.9,3,0c-0.2-21.1-0.5-42.2-0.7-63.3
					C909.3,812.1,906.3,812.1,906.4,814.1L906.4,814.1z"/>
			</g>
		</g>
	</g>
	<g id="torso">
		<path class="st3" d="M729.9,321.8c-18,11.9-43.1,28.5-53.9,59.7c-7.5,21.6-4.8,40.5-1,67.4c1.4,9.6,5.9,37.6,23.1,76.1
			c13.7,30.7,23.9,42.1,39.5,68.4c13.8,23.2,31.4,57.3,46.2,103.1c18.8,2.6,33.5,0.9,43.3-1c12.4-2.4,36-8.9,110.8-67.4
			c10.2-8,18.5-14.7,24.1-19.3C946,541,926.3,460.9,902.3,369c-8.1-30.9-16.4-61.2-42.7-75.6C812.2,267.4,743.2,313,729.9,321.8z"/>
	</g>
	<g id="hand_left">
		<path class="st7" d="M870.3,323.4c-1.5,1.2-4.7,4.2-9.2,21.9c-9,34.9-3.6,50.6-1.5,55.9l0,0c5.4,33.7,5.4,68.1,9,102
			c3.7,35.7,2.5,70.3-0.1,139.6c-1.2,33.1-2.4,42.9-6.1,123.6c-0.9,19.5-1.6,35.6-2,46.2c-9.8,6.1-18.1,9.9-24.1,12.3
			c-6.3,2.6-10.6,3.7-15,7.7c-5.7,5.1-8.2,11.7-9.4,16.6c-2.9,1.6-7.3,3.9-12.8,6.5c-14.6,7.1-15.9,6.6-19.9,9.7
			c-8,6.1-10.9,14.5-14.4,23.7c-2.7,7.2-6.5,20.6-3.2,22.4c2.7,1.5,9.1-5.3,13.1-9.5c6.8-7.2,8.9-11.9,12.7-16.8
			c4-5.1,10.8-11.6,22.8-16.6c-4.2,2.2-15.9,9.2-20.1,22.7c-2.6,8.2-1.4,15.7-0.4,22.1c1.5,9.3,4.6,16.5,7.1,21.1
			c1.9-0.2,4.7-0.7,7.6-2.3c5.7-3.2,7.5-8.3,11.5-16.2c3.7-7.3,7.8-15.5,13.8-22c4.7-5.1,10.1-8.6,15.6-11.1
			c-1.3,6.4-2.1,11.9-2.7,16c-0.2,1.5-2,13.9-0.8,28.7c0.3,3.3,0.7,7,2.8,7.8c2.4,0.9,5.5-2.1,6-2.6c4.8-4.5,4.1-10.4,5.4-18.1
			c2.3-13.7,9.2-23.4,11.7-26.9c3.3-4.6,3.3-3.3,12.3-13.6c6.9-8,10.4-12.1,12.5-15.8c2.7-4.8,6.7-14.5,4-30.8
			c3.9-17.4,8.9-40.3,14-67.4c4.3-23.1,11.2-60.4,17-110c4.1-35.6,5.9-62.6,6.9-78.3c2.3-35.8,3.7-57.6,3-88.4
			c-0.9-36.9-3.4-26.9-5.5-74.3c0,0-1.1-24.3-8.8-53.6c-0.9-3.4-3.2-11.8-9.5-20.7c-4-5.7-8.3-11.8-16.4-14.9
			C888.8,316.9,877.7,317.3,870.3,323.4z"/>
		<path class="st12" d="M896.9,320c2,12.8,4.7,30.6,7.3,52c4.4,36.2,11.4,105.4,10.2,196.2c-0.9,66.6-1.5,119.1-15.4,189.4
			c-6.9,35.3-15,64.2-21.3,84.5c-7,9.4-15.5,22.8-22.2,40.1c-8.2,21.2-10.6,40.1-11.2,53.2c1.4-0.5,3.4-1.4,5.4-3.1
			c6.3-5.5,5.7-14.1,7.3-21.7c1.2-6.1,5.5-12.2,13.9-24.3c15.6-22.3,24.5-24.2,27.6-37.4c2-8.5,0.4-16.4-1.6-22.2
			c1.3-6.2,3.1-15.3,5.3-26.2c6.2-31.5,17.5-89.4,25-150.3c7.6-62.3,8.2-103.8,9.2-183.8c0.1-5.4-3.1-35.1-9.6-94.3
			c-0.6-5.2-1.8-15.3-7.6-26.6C912.6,332.7,903.2,324.6,896.9,320z"/>
		<path class="st6" d="M818.4,759.5"/>
		<g>
			<g>
				<path class="st9" d="M869,323.6c-14.2,24-13,52.8-10.8,79.6c2.8,32.7,6.9,65.2,8.7,98c3.7,66.1,0.7,132.4-2.7,198.5
					c-1.9,37-3.8,73.9-5.7,110.9c-0.1,1.9,2.9,1.9,3,0c3.4-65.4,7.5-130.8,9.4-196.2c0.9-32.4,1.1-64.9-0.2-97.3
					c-1.3-32.2-4.7-64.2-7.9-96.3c-3.1-31.5-8.2-67,8.7-95.7C872.5,323.4,869.9,321.9,869,323.6L869,323.6z"/>
			</g>
		</g>
		<g>
			<g>
				<path class="st9" d="M871.3,324.5c13.8-12.5,32.4-1.6,40.8,11.4c9,13.7,12.6,30.4,14.9,46.4c5.1,35.5,6.9,71.7,7.4,107.6
					c1.1,72.5-5.3,145-16.5,216.6c-6.2,39.9-14,79.6-22.7,119.1c-0.4,1.9,2.5,2.7,2.9,0.8c16.6-74.6,29.4-150.1,35.5-226.3
					c3.1-38.2,4.4-76.6,3.7-115c-0.4-19-1.2-38-2.7-57c-1.4-18.2-2.8-36.6-6.1-54.6c-3-16.7-8.3-35.4-20.8-47.6
					c-10.3-10.1-27.2-13.9-38.6-3.5C867.8,323.6,869.9,325.8,871.3,324.5L871.3,324.5z"/>
			</g>
		</g>
		<g>
			<g>
				<path class="st9" d="M859.5,811.3c-5.7,4-11.7,7.5-18.2,10.1c-4.4,1.8-9.1,2.7-13.4,4.7c-9.3,4.2-14.6,13.4-17.6,22.8
					c-0.6,1.8,2.3,2.6,2.9,0.8c3.5-10.5,9.4-19,20.4-22.4c9.9-3,18.9-7.5,27.4-13.4C862.6,812.8,861.1,810.2,859.5,811.3
					L859.5,811.3z"/>
			</g>
		</g>
		<g>
			<g>
				<path class="st9" d="M839.4,834.9c-18.1,8.2-36.3,16.3-54,25.3c-7.1,3.6-13.2,7.9-17,15c-3.8,7-5.7,15.2-7.4,22.9
					c-0.9,4-4,12.6,0.5,15.7c5,3.5,9.9-5,12.2-8c11.1-14.4,21-31.6,39.4-37.4c1.8-0.6,1.1-3.5-0.8-2.9c-12.5,3.9-21.8,13-29.6,23.2
					c-5,6.4-9.4,13.2-14.7,19.4c-0.7,0.8-1.3,1.6-2.1,2.4c-1.2-0.2-2.4-0.3-3.5-0.5c-1-1.2,0.2-5.1,0.5-6.4
					c0.8-4.1,1.7-8.1,2.8-12.1c1.9-7.3,4.2-15.2,9.6-20.8c5.3-5.6,13-8.5,19.8-11.8c15.2-7.3,30.5-14.4,45.9-21.3
					C842.7,836.7,841.2,834.1,839.4,834.9L839.4,834.9z"/>
			</g>
		</g>
		<g>
			<g>
				<path class="st9" d="M814.5,863.9c-11.4,7.6-24.4,16.8-27,31.3c-1.4,8,0.2,16.6,1.5,24.5c1,6.3,1.9,12.9,7.2,17
					c0.9,0.7,1.9-0.1,2.2-0.9c4-9.8,4.3-20.4,7.4-30.4c3.6-11.4,12.2-18.7,21.4-25.7c1.5-1.1,0-3.8-1.5-2.6
					c-8.4,6.3-16.9,13-21.1,22.9c-4.8,11.2-4.5,23.8-9.1,35c0.7-0.3,1.5-0.6,2.2-0.9c-5.1-3.9-5.4-12.1-6.3-17.9
					c-1.1-7.5-2.6-15.8-0.4-23.3c3.5-12.1,15-19.8,24.9-26.4C817.6,865.4,816.1,862.8,814.5,863.9L814.5,863.9z"/>
			</g>
		</g>
		<g>
			<g>
				<path class="st9" d="M796.3,936c4.9,1.5,8.6-1.8,11.6-5.4c4.2-5.1,7.5-10.8,10.7-16.5c6.9-12.1,13.9-25,27.1-31.2
					c1.7-0.8,0.2-3.4-1.5-2.6c-9.8,4.7-16.7,13.1-22.2,22.2c-3.1,5-5.8,10.2-8.8,15.3c-2.8,4.6-9.2,17.5-16,15.4
					C795.2,932.5,794.4,935.4,796.3,936L796.3,936z"/>
			</g>
		</g>
		<g>
			<g>
				<path class="st9" d="M894.7,825.8c0.5,7.5,1,15.2-0.5,22.6c-1.4,7.1-4.9,13.1-9.6,18.6c-8.2,9.5-17.8,17.2-23.4,28.7
					c-2.7,5.6-4.7,11.6-6.5,17.6c-0.9,3.2-1.8,6.5-2.7,9.8c-1,3.5-1.4,10.2-6.4,9.5c-4.7-0.6-2.7-20.7-2.5-23.9
					c0.5-8.6,1.7-17,3.6-25.4c0.4-1.9-2.5-2.7-2.9-0.8c-2,9.2-3.3,18.6-3.8,28.1c-0.2,4.3-0.2,8.7-0.1,13c0.1,3.1,0.1,6.7,1.9,9.4
					c2.3,3.3,6.9,4.4,9.6,1.1c2.2-2.6,2.6-7,3.5-10.2c1.1-4.1,2.2-8.2,3.4-12.2c2.7-9,6.3-17.8,12.2-25.2c4.8-6,10.7-11.1,15.7-16.8
					c4.7-5.3,8.5-11.1,10.3-18c2.3-8.4,1.7-17.3,1.2-25.9C897.6,823.9,894.6,823.9,894.7,825.8L894.7,825.8z"/>
			</g>
		</g>
	</g>
	<g id="head">
		<path class="st7" d="M692.7,119c-19.4,12.9-24.6,34.8-30.9,61.9c-3.6,15.2-16.1,68.8,13.5,110.8c6.2,8.8,22,31.2,42.5,29
			c12.7-1.3,21.4-11.5,25.1-16.4c8,8.6,16,17.3,24,25.9c7.3-1.4,17.9-4.5,28.8-11.4c28-17.9,36.3-47.9,40.6-63.8
			c4.1-15,13.4-48.9-3.9-82.5c-8.4-16.3-19.5-25.7-25.8-30.9C779.5,118.9,726.9,96.4,692.7,119z"/>
		<path class="st13" d="M759,158.3c4.7,8.5,11.2,22.8,12.2,41.2c1.6,27.9-10,49.1-20.6,68.3c-6.3,11.5-16.8,27.8-33.5,44.6
			c7-1.3,15.9-3.7,25.7-8.2c13.6-6.4,23.3-14.6,29.4-20.6c1.3,3.9,9.5,27.5,20.9,27.4c4.1-0.1,7.2-3.2,9-5.2
			c40.9-44.3,40.1-83.1,40.1-83.1c-0.2-10.3-2.2-29.2-13.7-47.7c-4-6.5-8.5-13.6-16.8-18.7C790.4,143.3,763,156.4,759,158.3z"/>
		<path class="st2" d="M703.1,120.5c4-1.8,9.8-3.5,14.7-1.2c9.1,4.3,8.9,19.4,11.2,28.9c3.2,13.6,17.3,30.1,64.2,43.5
			c1.8-7,7-12.3,13.2-13.4c9.4-1.5,17.5,7.5,19,15.5c0.9,5.1-1,9.2-2.9,13.5c-1.7,3.8-5.9,12.9-14,14.1c-3.3,0.5-6.1-0.5-7.7-1.3
			c0,5.7-0.3,14.1-1.9,24.2c-3.7,22.8-11.4,36.2-15.6,47.6c-4.2,11.4-15,44.7-0.6,67.7c15.3,24.5,58.2,35.3,84.8,17.7
			c21-13.9,24.3-40.4,25.9-53.6c1.5-12.4,0.9-25.3-15.9-77.1c-12.6-39-18.9-58.4-31.8-84.8c-24.2-49.6-41.4-62.3-46.5-65.9
			c-6.8-4.8-21.7-15-43-17.7c-35.4-4.5-71.6,13.8-90.7,40.6c-10.4,14.7-13.2,37.3-18.8,82.4c-1.8,14.7-2.8,37.1-4.7,81.8
			c-1.4,32.3-1.4,42.9,1.8,57.7c3.8,17.7,8.1,38,25.9,51.8c3,2.3,23.8,18.5,47.1,11.2c23.4-7.3,31.3-32.6,33.6-40
			c8.9-28.8-4.1-53.8-7.3-59.5c-8.6,2.7-17.1,5.5-25.7,8.2c-5.5-1.9-13.5-5.4-21.8-11.8c-14.6-11.3-21-25-23.6-30.6
			c-2.7-5.9-5.7-14.3-7.7-30.6c-2.9-23.8-5.6-46.9,4.7-73C677.5,144.8,691.7,129.8,703.1,120.5z"/>
		<g>
			<g>
				<path class="st9" d="M665.6,165.9c-4.7,30.3-7.9,62.4,1.8,92.2c7.6,23.4,23.3,44.9,46.3,55c1.8,0.8,3.3-1.8,1.5-2.6
					c-22.8-10-38.1-31.3-45.4-54.6c-9-28.8-5.9-59.8-1.4-89.2C668.8,164.8,665.9,164,665.6,165.9L665.6,165.9z"/>
			</g>
		</g>
		<g>
			<g>
				<path class="st9" d="M715.6,313.5c23.2-3.7,44.8-15.8,61.4-32.3c15.7-15.5,27.6-36.5,25.3-59.2c-0.2-1.9-3.2-1.9-3,0
					c2.3,22.5-9.8,43.1-25.6,58.2c-16.2,15.5-36.7,26.9-59,30.4C712.9,310.9,713.7,313.8,715.6,313.5L715.6,313.5z"/>
			</g>
		</g>
		<g>
			<g>
				<path class="st9" d="M799.9,221.3c7.3,4.7,15.2-0.9,19.8-6.8c5.4-6.9,8.2-16.2,6.7-24.9c-1.4-8-7.2-13.9-15.6-13.6
					c-9,0.3-15.3,7.4-19,14.9c-0.8,1.7,1.8,3.3,2.6,1.5c2.9-5.9,7.2-11.6,14-13.1c8.2-1.8,14.1,3.9,15.1,11.7
					c0.8,6.3-0.7,12.8-3.9,18.3c-3.4,5.8-11,14.2-18.3,9.5C799.8,217.7,798.3,220.3,799.9,221.3L799.9,221.3z"/>
			</g>
		</g>
		<g>
			<g>
				<path class="st9" d="M741.8,305.3c6,7.7,12.5,14.9,19.5,21.7c1.9,1.8,4.5,5.4,7.4,5.5c3,0.1,6.9-2.9,9.5-4.2
					c1.7-0.9,0.2-3.4-1.5-2.6c-4,2-7.3,4.1-11.4,1c-2.8-2.1-5.1-5-7.5-7.5c-4.9-5.1-9.5-10.5-13.9-16.1
					C742.8,301.7,740.7,303.8,741.8,305.3L741.8,305.3z"/>
			</g>
		</g>
		<g>
			<g>
				<path class="st9" d="M699.4,258.9c18,0.4,28.8-15.1,37.3-28.7c1-1.6-1.6-3.2-2.6-1.5c-7.9,12.7-17.9,27.6-34.8,27.2
					C697.5,255.9,697.5,258.9,699.4,258.9L699.4,258.9z"/>
			</g>
		</g>
		<g>
			<g>
				<path class="st9" d="M731.4,202.5c2.9,0,2.9-4.5,0-4.5C728.5,198,728.5,202.5,731.4,202.5L731.4,202.5z"/>
			</g>
		</g>
		<g>
			<g>
				<path class="st9" d="M745.8,195.9c2.9,0,2.9-4.5,0-4.5C742.9,191.4,742.9,195.9,745.8,195.9L745.8,195.9z"/>
			</g>
		</g>
		<g>
			<g>
				<path class="st9" d="M744.6,210.3c2.9,0,2.9-4.5,0-4.5C741.7,205.8,741.7,210.3,744.6,210.3L744.6,210.3z"/>
			</g>
		</g>
		<g>
			<g>
				<path class="st9" d="M672.1,215c0-0.1,0-0.3,0-0.4c0-1.2-1-2.3-2.3-2.3c-1.2,0.1-2.3,1-2.3,2.3c0,0.1,0,0.3,0,0.4
					c0,1.2,1,2.3,2.3,2.3C671.1,217.2,672.1,216.3,672.1,215L672.1,215z"/>
			</g>
		</g>
		<g>
			<g>
				<path class="st9" d="M678.9,214c2.9,0,2.9-4.5,0-4.5C676,209.5,676,214,678.9,214L678.9,214z"/>
			</g>
		</g>
		<g>
			<g>
				<path class="st9" d="M678.5,232.1c2.9,0,2.9-4.5,0-4.5C675.6,227.6,675.6,232.1,678.5,232.1L678.5,232.1z"/>
			</g>
		</g>
		<g>
			<g>
				<path class="st9" d="M692,161.6c-1.9,27.1-2.7,54.2-2.4,81.3c0,1.6,2,1.9,2.8,0.8c3.7-5,7.3-10,11-15c1.1-1.6-1.5-3.1-2.6-1.5
					c-3.7,5-7.3,10-11,15c0.9,0.3,1.9,0.5,2.8,0.8c-0.3-27.1,0.5-54.2,2.4-81.3C695.2,159.7,692.2,159.7,692,161.6L692,161.6z"/>
			</g>
		</g>
		<ellipse class="st9" cx="678.9" cy="189.6" rx="3.3" ry="9.9"/>
		<ellipse class="st9" cx="727.4" cy="177.6" rx="3.3" ry="9.9"/>
		<g>
			<g>
				<path class="st9" d="M672.6,169.8c1.9-3.8,5.9-10.1,10.9-6.8c1.6,1.1,3.1-1.5,1.5-2.6c-6.6-4.3-12.4,2.5-15,7.9
					C669.1,170,671.7,171.5,672.6,169.8L672.6,169.8z"/>
			</g>
		</g>
		<g>
			<g>
				<path class="st9" d="M717.2,152.3c3.4-9.9,15.3-12,22.2-4.3c1.3,1.4,3.4-0.7,2.1-2.1c-8.5-9.5-23.1-6.3-27.2,5.6
					C713.6,153.3,716.5,154.1,717.2,152.3L717.2,152.3z"/>
			</g>
		</g>
	</g>
</g>
</svg>
